<svg width="139" height="139" viewBox="0 0 139 139" fill="none" xmlns="http://www.w3.org/2000/svg">
<path d="M69.5 11.5835C61.8943 11.5835 54.363 13.0816 47.3362 15.9921C40.3095 18.9027 33.9248 23.1688 28.5467 28.5469C17.6852 39.4084 11.5833 54.1397 11.5833 69.5002C11.5833 95.0993 28.2054 116.818 51.1983 124.521C54.0941 124.984 55.0208 123.189 55.0208 121.625V111.837C38.9779 115.312 35.5608 104.076 35.5608 104.076C32.8966 97.3581 29.1321 95.5627 29.1321 95.5627C23.8616 91.9718 29.5375 92.0877 29.5375 92.0877C35.3291 92.4931 38.3987 98.0531 38.3987 98.0531C43.4375 106.856 51.9512 104.25 55.2525 102.86C55.7737 99.0956 57.2796 96.5473 58.9012 95.0993C46.0437 93.6514 32.5491 88.6706 32.5491 66.6043C32.5491 60.1756 34.75 55.021 38.5146 50.9089C37.9354 49.461 35.9083 43.4377 39.0937 35.6189C39.0937 35.6189 43.9587 34.0552 55.0208 41.5264C59.5962 40.2522 64.5771 39.6152 69.5 39.6152C74.4229 39.6152 79.4037 40.2522 83.9792 41.5264C95.0412 34.0552 99.9062 35.6189 99.9062 35.6189C103.092 43.4377 101.065 49.461 100.485 50.9089C104.25 55.021 106.451 60.1756 106.451 66.6043C106.451 88.7285 92.8983 93.5935 79.9829 95.0414C82.0679 96.8368 83.9792 100.37 83.9792 105.756V121.625C83.9792 123.189 84.9058 125.042 87.8596 124.521C110.852 116.76 127.417 95.0993 127.417 69.5002C127.417 61.8944 125.919 54.3632 123.008 47.3364C120.097 40.3096 115.831 33.925 110.453 28.5469C105.075 23.1688 98.6905 18.9027 91.6637 15.9921C84.637 13.0816 77.1057 11.5835 69.5 11.5835Z" fill="black"/>
</svg>
