<svg width="1312" height="749" viewBox="0 0 1312 749" fill="none" xmlns="http://www.w3.org/2000/svg">
<path d="M1045.78 558.821C1019.03 529.054 1005.66 487.855 1005.66 435.223C1005.66 382.592 1019.03 341.393 1045.78 311.626C1072.96 281.859 1109.41 266.976 1155.14 266.976C1200.87 266.976 1237.11 281.859 1263.85 311.626C1290.6 341.393 1303.97 382.592 1303.97 435.223C1303.97 487.855 1290.6 529.054 1263.85 558.821C1237.11 588.588 1200.87 603.471 1155.14 603.471C1109.41 603.471 1072.96 588.588 1045.78 558.821ZM1155.14 375.043C1130.98 375.043 1118.9 394.887 1118.9 434.576C1118.9 474.266 1130.98 494.11 1155.14 494.11C1179.73 494.11 1192.03 474.266 1192.03 434.576C1192.03 394.887 1179.73 375.043 1155.14 375.043Z" fill="#919FF8" fill-opacity="0.15"/>
<path d="M137.186 592.47C137.186 596.353 119.068 598.294 82.8296 598.294C47.023 598.294 29.1198 595.274 29.1198 589.235V145.967C29.1198 142.947 35.8065 140.79 49.1801 139.496C62.5536 138.202 73.7701 137.555 82.8296 137.555C119.068 137.555 137.186 141.437 137.186 149.203V278.624C161.345 271.29 179.68 267.623 192.191 267.623C224.977 267.623 250.861 276.467 269.843 294.154C288.825 311.411 298.316 343.766 298.316 391.22V591.823C298.316 595.706 281.491 597.647 247.842 597.647C209.878 596.353 190.896 594.196 190.896 591.176V400.927C190.896 379.788 183.994 369.219 170.189 369.219C160.698 369.219 149.697 373.748 137.186 382.808V592.47Z" fill="#919FF8" fill-opacity="0.1"/>
<path d="M961.714 591.823C961.714 595.706 939.713 597.647 895.709 597.647C861.197 597.216 843.941 595.49 843.941 592.47V151.791C843.941 145.32 864.864 142.084 906.71 142.084C943.38 143.379 961.714 145.536 961.714 148.556V591.823Z" fill="#919FF8" fill-opacity="0.1"/>
<path d="M793.226 591.823C793.226 595.706 771.224 597.647 727.221 597.647C692.708 597.216 675.452 595.49 675.452 592.47V151.791C675.452 145.32 696.375 142.084 738.222 142.084C774.891 143.379 793.226 145.536 793.226 148.556V591.823Z" fill="#919FF8" fill-opacity="0.1"/>
<path d="M594.13 579.528C566.952 595.49 532.008 603.471 489.299 603.471C446.59 603.471 410.568 589.019 381.232 560.115C351.897 530.779 337.229 490.443 337.229 439.106C337.229 387.338 351.25 345.707 379.291 314.215C407.764 282.722 443.57 266.976 486.71 266.976C529.851 266.976 563.069 277.977 586.365 299.978C610.092 321.98 621.956 348.727 621.956 380.219C621.956 450.107 581.835 485.051 501.594 485.051H456.944C456.944 497.993 460.395 507.052 467.297 512.229C474.631 516.975 485.201 519.347 499.006 519.347C529.204 519.347 557.892 512.445 585.071 498.64C585.502 498.208 587.443 501.228 590.895 507.699C601.248 526.25 606.425 541.996 606.425 554.938C606.425 567.449 602.327 575.646 594.13 579.528ZM513.242 392.514C513.242 374.396 504.398 365.336 486.71 365.336C478.514 365.336 471.396 367.924 465.356 373.101C459.748 377.847 456.944 384.965 456.944 394.456V414.516H491.887C506.124 414.516 513.242 407.182 513.242 392.514Z" fill="#919FF8" fill-opacity="0.1"/>
</svg>
