<svg width="375" height="812" viewBox="0 0 375 812" fill="none" xmlns="http://www.w3.org/2000/svg">
<rect width="375" height="812" fill="#5B71EA"/>
<path d="M261.056 731.883C251.166 720.876 246.221 705.642 246.221 686.181C246.221 666.719 251.166 651.485 261.056 640.479C271.106 629.472 284.585 623.968 301.494 623.968C318.403 623.968 331.803 629.472 341.693 640.479C351.583 651.485 356.528 666.719 356.528 686.181C356.528 705.642 351.583 720.876 341.693 731.883C331.803 742.889 318.403 748.393 301.494 748.393C284.585 748.393 271.106 742.889 261.056 731.883ZM301.494 663.928C292.561 663.928 288.095 671.266 288.095 685.941C288.095 700.617 292.561 707.955 301.494 707.955C310.587 707.955 315.133 700.617 315.133 685.941C315.133 671.266 310.587 663.928 301.494 663.928Z" fill="#919FF8" fill-opacity="0.15"/>
<path d="M61.7269 232.325C61.7269 233.761 55.0271 234.479 41.6275 234.479C28.3875 234.479 21.7675 233.362 21.7675 231.129V67.2235C21.7675 66.1069 24.24 65.3093 29.1851 64.8307C34.1302 64.3522 38.2777 64.1129 41.6275 64.1129C55.0271 64.1129 61.7269 65.5485 61.7269 68.4199V116.275C70.6599 113.564 77.4394 112.208 82.0655 112.208C94.1889 112.208 103.76 115.478 110.779 122.018C117.798 128.399 121.307 140.363 121.307 157.91V232.086C121.307 233.521 115.086 234.239 102.643 234.239C88.6057 233.761 81.5869 232.963 81.5869 231.847V161.499C81.5869 153.682 79.0346 149.774 73.93 149.774C70.4206 149.774 66.3529 151.449 61.7269 154.799V232.325Z" fill="#919FF8" fill-opacity="0.1"/>
<path d="M232.392 382.337C222.343 388.239 209.422 391.19 193.629 391.19C177.837 391.19 164.517 385.846 153.67 375.159C142.823 364.311 137.399 349.396 137.399 330.414C137.399 311.271 142.583 295.878 152.952 284.233C163.48 272.588 176.72 266.766 192.672 266.766C208.624 266.766 220.907 270.833 229.521 278.969C238.294 287.104 242.681 296.995 242.681 308.639C242.681 334.481 227.846 347.402 198.175 347.402H181.665C181.665 352.188 182.941 355.538 185.494 357.452C188.206 359.207 192.114 360.084 197.218 360.084C208.385 360.084 218.993 357.532 229.042 352.427C229.202 352.268 229.92 353.384 231.196 355.777C235.024 362.636 236.938 368.459 236.938 373.244C236.938 377.87 235.423 380.901 232.392 382.337ZM202.482 313.186C202.482 306.486 199.212 303.136 192.672 303.136C189.641 303.136 187.009 304.093 184.776 306.007C182.702 307.762 181.665 310.394 181.665 313.903V321.321H194.586C199.85 321.321 202.482 318.609 202.482 313.186Z" fill="#919FF8" fill-opacity="0.1"/>
<path d="M176.316 588.793C176.316 590.228 168.181 590.946 151.91 590.946C139.148 590.787 132.767 590.149 132.767 589.032V426.084C132.767 423.691 140.504 422.495 155.977 422.495C169.536 422.973 176.316 423.771 176.316 424.888V588.793Z" fill="#919FF8" fill-opacity="0.1"/>
<path d="M241.784 588.793C241.784 590.228 233.648 590.946 217.377 590.946C204.616 590.787 198.235 590.149 198.235 589.032V426.084C198.235 423.691 205.972 422.495 221.445 422.495C235.004 422.973 241.784 423.771 241.784 424.888V588.793Z" fill="#919FF8" fill-opacity="0.1"/>
</svg>
