<svg width="512" height="512" viewBox="0 0 512 512" fill="none" xmlns="http://www.w3.org/2000/svg">
<path d="M207.672 31.5682C194.366 31.4902 180.834 33.3949 167.906 36.2464C149.081 40.3955 130.634 46.7556 117.328 56.8526C103.87 66.9609 96.5672 82.2095 103.114 98.1933L120.73 141.578C126.627 134.839 133.582 128.602 141.596 123.088L129.197 92.457C125.266 82.8778 128.366 77.1972 136.757 70.8482C145.149 64.5382 159.741 58.969 175.693 55.4548C186.655 53.0377 197.768 51.6899 207.521 51.6899C211.906 51.6899 216.064 51.974 219.693 52.5643C231.412 54.4523 238.216 57.9387 242.147 67.5456L254.546 98.1933C265.433 99.5856 275.941 101.925 285.845 105.211L268.23 61.7926C261.728 45.7865 244.264 36.018 225.515 32.9995C219.693 32.0471 213.721 31.6071 207.672 31.5682ZM233.377 106.714C221.659 106.659 209.789 107.828 197.995 110.446C135.17 124.258 99.546 172.877 118.386 219.214C137.211 265.494 203.136 291.725 266.037 277.858C328.863 263.99 364.472 215.426 345.647 169.09C330.375 131.442 283.955 107.104 233.377 106.714ZM231.034 142.915C261.35 142.58 289.55 157.061 298.622 179.449C309.66 206.516 288.642 235.142 251.975 243.217C215.233 251.348 176.373 235.866 165.411 208.855C154.373 181.788 175.39 153.162 212.057 145.031C218.408 143.639 224.759 142.97 231.034 142.915ZM232.697 152.884C229.37 152.884 225.968 153.106 222.566 153.552L229.521 170.482L216.518 173.378L209.638 156.392C200.037 159.455 192.098 164.301 186.353 170.26L208.353 179.003L201.851 187.859L179.851 179.171C176.297 185.965 175.088 193.484 176.902 201.058L200.112 195.934L203.968 205.569L180.758 210.693C191.645 229.071 219.013 239.152 245.852 234.084L221.432 208.465L251.522 201.837L250.236 233.137C276.395 226.509 291.742 206.905 287.13 187.246L263.921 192.314L260.065 182.735L283.275 177.611C279.117 170.538 272.464 164.746 264.374 160.513L252.429 176.72L240.484 171.93L252.429 155.724C246.23 153.942 239.577 152.939 232.697 152.884Z" fill="black"/>
</svg>
