<svg width="378" height="378" viewBox="0 0 378 378" fill="none" xmlns="http://www.w3.org/2000/svg">
<path d="M78.75 297.384L77.5215 298.045C75.2293 299.295 72.5344 299.583 70.0296 298.846C67.5249 298.109 65.4155 296.408 64.1655 294.115C62.9155 291.823 62.6272 289.128 63.3642 286.624C64.1011 284.119 65.8029 282.009 68.0951 280.759C91.5784 267.947 112.699 264.962 133.607 268.821C153.964 272.585 173.47 282.752 193.906 294.675C231.328 316.496 274.948 310.669 299.392 293.21C300.442 292.434 301.636 291.874 302.905 291.564C304.174 291.254 305.492 291.199 306.782 291.404C308.072 291.608 309.308 292.067 310.419 292.754C311.53 293.44 312.493 294.341 313.252 295.404C314.012 296.467 314.552 297.67 314.841 298.944C315.131 300.217 315.164 301.536 314.939 302.823C314.714 304.109 314.235 305.338 313.53 306.438C312.826 307.537 311.909 308.486 310.834 309.228C280.161 331.144 228.178 337.452 183.991 311.677C163.619 299.793 146.711 291.265 130.032 288.186C114.227 285.272 98.028 287.154 78.75 297.384ZM283.5 275.491C285.067 274.995 286.603 274.459 288.123 273.892C296.191 270.936 303.835 266.93 310.858 261.978C311.933 261.236 312.849 260.287 313.554 259.188C314.259 258.088 314.737 256.859 314.963 255.573C315.188 254.286 315.154 252.967 314.865 251.694C314.575 250.42 314.035 249.217 313.276 248.154C312.517 247.091 311.554 246.19 310.443 245.504C309.332 244.817 308.095 244.358 306.805 244.154C305.515 243.949 304.198 244.004 302.929 244.314C301.66 244.624 300.466 245.184 299.415 245.96C274.971 263.419 231.352 269.246 193.93 247.425C173.494 235.502 153.988 225.335 133.623 221.571C112.715 217.712 91.602 220.705 68.103 233.509C65.8108 234.761 64.1094 236.871 63.3732 239.376C63.0087 240.617 62.8921 241.917 63.03 243.203C63.168 244.489 63.5578 245.734 64.1773 246.869C64.7968 248.004 65.6337 249.006 66.6404 249.818C67.647 250.629 68.8036 251.235 70.0442 251.599C72.5497 252.335 75.245 252.046 77.5372 250.795C97.3586 239.983 113.92 237.959 130.048 240.936C146.727 244.015 163.642 252.543 184.007 264.427C216.846 283.587 253.992 285.012 283.5 275.491ZM189 103.005C154.271 103.005 124.346 123.598 110.77 153.24C119.624 152.752 128.506 153.331 137.222 154.964C161.256 159.406 183.354 171.202 203.868 183.165C228.304 197.418 255.67 196.906 274.987 189.528V189C274.987 141.514 236.502 103.005 189 103.005ZM103.139 193.827C112.02 192.015 121.171 191.966 130.071 193.686C133.253 194.268 136.45 195.056 139.663 196.024C153.326 200.143 167.541 207.561 184.031 217.177C228.217 242.952 280.2 236.644 310.881 214.728C311.956 213.986 312.873 213.037 313.578 211.938C314.282 210.838 314.761 209.609 314.986 208.323C315.211 207.036 315.178 205.717 314.889 204.444C314.599 203.17 314.059 201.967 313.3 200.904C312.54 199.841 311.577 198.94 310.466 198.254C309.355 197.567 308.119 197.108 306.829 196.904C305.539 196.699 304.221 196.754 302.952 197.064C301.684 197.374 300.489 197.934 299.439 198.71C282.13 211.066 255.229 217.586 227.706 212.625C221.044 211.417 214.517 209.563 208.215 207.089C203.289 205.153 198.518 202.841 193.945 200.175C176.069 189.748 158.902 180.652 141.238 176.022C137.796 175.121 134.311 174.393 130.796 173.841C110.809 170.754 90.5546 174.03 68.1187 186.259C65.8265 187.511 64.1252 189.621 63.389 192.126C62.6527 194.632 62.942 197.327 64.193 199.619C65.4441 201.912 67.5545 203.613 70.06 204.349C72.5655 205.085 75.2608 204.796 77.553 203.545C86.6801 198.568 95.1142 195.45 103.131 193.827H103.139ZM189.583 346.5C189.153 346.527 188.721 346.527 188.291 346.5H189.583ZM91.4051 77.9231L90.6097 77.2144C88.6466 75.6392 86.1547 74.8759 83.6462 75.0812C81.1377 75.2866 78.8032 76.445 77.1224 78.3184C75.4415 80.1918 74.5422 82.6379 74.6091 85.1539C74.676 87.6699 75.7041 90.0647 77.4821 91.8461L94.3976 108.762L95.2009 109.47C97.1655 111.031 99.6519 111.782 102.152 111.571C104.652 111.36 106.977 110.202 108.652 108.334C110.327 106.466 111.226 104.029 111.164 101.52C111.102 99.0122 110.085 96.6221 108.321 94.8386L91.4051 77.9231ZM301.101 91.0429C302.676 89.079 303.44 86.586 303.233 84.0766C303.027 81.5672 301.867 79.2322 299.992 77.5518C298.117 75.8714 295.67 74.9734 293.153 75.0425C290.636 75.1115 288.241 76.1424 286.461 77.9231L269.545 94.8386L268.837 95.6419C267.276 97.6065 266.525 100.093 266.736 102.593C266.947 105.093 268.105 107.418 269.973 109.093C271.841 110.768 274.278 111.667 276.787 111.605C279.295 111.543 281.685 110.526 283.468 108.762L300.384 91.8461L301.101 91.0429ZM198.796 40.32C198.549 37.8008 197.341 35.4738 195.422 33.8223C193.504 32.1708 191.023 31.3217 188.495 31.4514C185.967 31.5812 183.587 32.6798 181.847 34.519C180.108 36.3582 179.144 38.7967 179.156 41.328V65.2522L179.211 66.2524C179.477 68.7555 180.692 71.0617 182.606 72.6968C184.519 74.332 186.987 75.1719 189.501 75.0438C192.015 74.9157 194.384 73.8295 196.122 72.0083C197.86 70.1871 198.834 67.7694 198.844 65.2522V41.3201L198.796 40.32Z" fill="black"/>
</svg>
