<svg width="142" height="142" viewBox="0 0 142 142" fill="none" xmlns="http://www.w3.org/2000/svg">
<g clip-path="url(#clip0_5_549)">
<path d="M0 10.1708C0 4.55288 4.66825 0 10.4281 0H131.572C137.332 0 142 4.55288 142 10.1708V131.829C142 137.447 137.332 142 131.572 142H10.4281C4.66825 142 0 137.447 0 131.829V10.1708ZM43.8691 118.872V54.7499H22.5603V118.872H43.8691ZM33.2191 45.9903C40.6475 45.9903 45.2714 41.0735 45.2714 34.9143C45.1382 28.6219 40.6564 23.8383 33.3611 23.8383C26.0659 23.8383 21.3 28.6308 21.3 34.9143C21.3 41.0735 25.9239 45.9903 33.0771 45.9903H33.2191ZM76.7776 118.872V83.0611C76.7776 81.1441 76.9196 79.2271 77.4876 77.8604C79.023 74.0352 82.5286 70.0681 88.4216 70.0681C96.134 70.0681 99.2136 75.9434 99.2136 84.5699V118.872H120.522V82.0938C120.522 62.3912 110.015 53.2323 95.992 53.2323C84.6852 53.2323 79.6176 59.4447 76.7776 63.8201V64.042H76.6356C76.6828 63.9679 76.7301 63.894 76.7776 63.8201V54.7499H55.4776C55.7439 60.7671 55.4776 118.872 55.4776 118.872H76.7776Z" fill="black"/>
</g>
<defs>
<clipPath id="clip0_5_549">
<rect width="142" height="142" fill="white"/>
</clipPath>
</defs>
</svg>
