<svg width="250" height="250" viewBox="0 0 250 250" fill="none" xmlns="http://www.w3.org/2000/svg">
<path d="M52.0833 218.75C46.3542 218.75 41.4479 216.708 37.3646 212.625C33.2812 208.542 31.243 203.639 31.25 197.917V52.0834C31.25 46.3542 33.2917 41.4479 37.375 37.3646C41.4583 33.2813 46.3611 31.2431 52.0833 31.25H197.917C203.646 31.25 208.552 33.2917 212.635 37.375C216.719 41.4584 218.757 46.3611 218.75 52.0834V121.875C215.451 120.313 212.066 118.965 208.594 117.833C205.122 116.701 201.562 115.878 197.917 115.365V52.0834H52.0833V197.917H115.104C115.625 201.736 116.451 205.382 117.583 208.854C118.715 212.326 120.059 215.625 121.615 218.75H52.0833ZM52.0833 187.5V197.917V52.0834V115.365V114.583V187.5ZM72.9167 177.083H115.365C115.885 173.438 116.712 169.879 117.844 166.406C118.976 162.934 120.233 159.549 121.615 156.25H72.9167V177.083ZM72.9167 135.417H136.458C142.014 130.208 148.222 125.868 155.083 122.396C161.944 118.924 169.278 116.58 177.083 115.365V114.583H72.9167V135.417ZM72.9167 93.75H177.083V72.9167H72.9167V93.75ZM187.5 239.583C173.09 239.583 160.806 234.504 150.646 224.344C140.486 214.184 135.41 201.903 135.417 187.5C135.417 173.09 140.497 160.806 150.656 150.646C160.816 140.486 173.097 135.41 187.5 135.417C201.91 135.417 214.194 140.497 224.354 150.656C234.514 160.816 239.59 173.097 239.583 187.5C239.583 201.91 234.503 214.194 224.344 224.354C214.184 234.514 201.903 239.59 187.5 239.583ZM182.292 218.75H192.708V192.708H218.75V182.292H192.708V156.25H182.292V182.292H156.25V192.708H182.292V218.75Z" fill="black"/>
</svg>
