<svg width="1441" height="1024" viewBox="0 0 1441 1024" fill="none" xmlns="http://www.w3.org/2000/svg">
<path d="M0 0H514V149V341H0V0Z" fill="#FE7075"/>
<path d="M1440 1024H927V876.311V686H1440V1024Z" fill="#FFE597"/>
<path d="M0 339H514V489.748V684H0V339Z" fill="#FFE597"/>
<path d="M1440 688H926V537.252V343H1440V688Z" fill="#FE7075"/>
<path d="M0 684H514V832.563V1024H0V684Z" fill="#919FF8"/>
<path d="M1440 343.077H926V193.203V0.0769043H1440V343.077Z" fill="#919FF8"/>
<path d="M144.186 0H0V339L144.186 0Z" fill="#FE555D"/>
<path d="M1440 1024L1440 688H1296.32L1440 1024Z" fill="#FFCF51"/>
<path d="M0 338.5V684H143L0 338.5Z" fill="#FFCF51"/>
<path d="M1440 688L1439.58 343L1293.27 688H1440Z" fill="#FE555D"/>
<path d="M142.683 684L0 1024V684H142.683Z" fill="#5B71EA"/>
<path d="M1440 343L1296 0H1440V343Z" fill="#5B71EA"/>
</svg>
