<svg width="336" height="785" viewBox="0 0 336 785" fill="none" xmlns="http://www.w3.org/2000/svg">
<path d="M240.056 718.883C230.166 707.876 225.221 692.642 225.221 673.181C225.221 653.719 230.166 638.485 240.056 627.479C250.106 616.472 263.585 610.968 280.494 610.968C297.403 610.968 310.803 616.472 320.693 627.479C330.583 638.485 335.528 653.719 335.528 673.181C335.528 692.642 330.583 707.876 320.693 718.883C310.803 729.889 297.403 735.393 280.494 735.393C263.585 735.393 250.106 729.889 240.056 718.883ZM280.494 650.928C271.561 650.928 267.095 658.266 267.095 672.941C267.095 687.617 271.561 694.955 280.494 694.955C289.587 694.955 294.133 687.617 294.133 672.941C294.133 658.266 289.587 650.928 280.494 650.928Z" fill="#919FF8" fill-opacity="0.15"/>
<path d="M40.7269 219.325C40.7269 220.761 34.0271 221.479 20.6275 221.479C7.38751 221.479 0.767493 220.362 0.767493 218.129V54.2235C0.767493 53.1069 3.24003 52.3093 8.1851 51.8307C13.1302 51.3522 17.2777 51.1129 20.6275 51.1129C34.0271 51.1129 40.7269 52.5485 40.7269 55.4199V103.275C49.6599 100.564 56.4394 99.2077 61.0655 99.2077C73.1889 99.2077 82.76 102.478 89.7788 109.018C96.7976 115.399 100.307 127.363 100.307 144.91V219.086C100.307 220.521 94.0858 221.239 81.6433 221.239C67.6057 220.761 60.5869 219.963 60.5869 218.847V148.499C60.5869 140.682 58.0346 136.774 52.93 136.774C49.4206 136.774 45.3529 138.449 40.7269 141.799V219.325Z" fill="#919FF8" fill-opacity="0.1"/>
<path d="M211.392 369.337C201.343 375.239 188.422 378.19 172.629 378.19C156.837 378.19 143.517 372.846 132.67 362.159C121.823 351.311 116.399 336.396 116.399 317.414C116.399 298.271 121.583 282.878 131.952 271.233C142.48 259.588 155.72 253.766 171.672 253.766C187.624 253.766 199.907 257.833 208.521 265.969C217.294 274.104 221.681 283.995 221.681 295.639C221.681 321.481 206.846 334.402 177.175 334.402H160.665C160.665 339.188 161.941 342.538 164.494 344.452C167.206 346.207 171.114 347.084 176.218 347.084C187.385 347.084 197.993 344.532 208.042 339.427C208.202 339.268 208.92 340.384 210.196 342.777C214.024 349.636 215.938 355.459 215.938 360.244C215.938 364.87 214.423 367.901 211.392 369.337ZM181.482 300.186C181.482 293.486 178.212 290.136 171.672 290.136C168.641 290.136 166.009 291.093 163.776 293.007C161.702 294.762 160.665 297.394 160.665 300.903V308.321H173.586C178.85 308.321 181.482 305.609 181.482 300.186Z" fill="#919FF8" fill-opacity="0.1"/>
<path d="M155.316 575.793C155.316 577.228 147.181 577.946 130.91 577.946C118.148 577.787 111.767 577.149 111.767 576.032V413.084C111.767 410.691 119.504 409.495 134.977 409.495C148.536 409.973 155.316 410.771 155.316 411.888V575.793Z" fill="#919FF8" fill-opacity="0.1"/>
<path d="M220.784 575.793C220.784 577.228 212.648 577.946 196.377 577.946C183.616 577.787 177.235 577.149 177.235 576.032V413.084C177.235 410.691 184.972 409.495 200.445 409.495C214.004 409.973 220.784 410.771 220.784 411.888V575.793Z" fill="#919FF8" fill-opacity="0.1"/>
</svg>
