<svg width="1440" height="1024" viewBox="0 0 1440 1024" fill="none" xmlns="http://www.w3.org/2000/svg">
<path d="M0 0H740.333V155.13V355.028H0V0Z" fill="#BFD6EC"/>
<path d="M1440 1024H696.552L697.586 870.873L696.552 671.481L1440 671.481L1440 1024Z" fill="#BFD6EC"/>
<path d="M0 339H740.333V489.748V684H0V339Z" fill="#BFD6EC"/>
<path d="M1440 684L720.999 684L720.999 535L720.999 339L1440 339L1440 684Z" fill="#BFD6EC"/>
<path d="M0 671.481H720.999V825.514V1024H0V671.481Z" fill="#BFD6EC"/>
<path d="M1440 355.028L720.999 355.028L720.999 202.257L720.999 1.01328e-05L1440 1.01328e-05L1440 355.028Z" fill="#BFD6EC"/>
<path d="M144.186 0H0V339H387.999L144.186 0Z" fill="#D0E2F4"/>
<path d="M1064 1024L1440 1024L1440 684L1295 684L1064 1024Z" fill="#D0E2F4"/>
<path d="M0 338.5V684H143L385.499 338.5H0Z" fill="#D0E2F4"/>
<path d="M1440 684L1440 339L1055 339L1295 684L1440 684Z" fill="#D0E2F4"/>
<path d="M142.683 684L390 1024H0V684H142.683Z" fill="#D0E2F4"/>
<path d="M1055 339L1296 0L1440 0L1440 339L1055 339Z" fill="#D0E2F4"/>
</svg>
