<svg width="1441" height="1024" viewBox="0 0 1441 1024" fill="none" xmlns="http://www.w3.org/2000/svg">
<path d="M0 0H514V149V341H0V0Z" fill="#FE7075"/>
<path d="M1440 1024H927V876.311V686H1440V1024Z" fill="#FFE597"/>
<path d="M0 339H514V489.748V684H0V339Z" fill="#FFE597"/>
<path d="M1440 688H926V537.252V343H1440V688Z" fill="#FE7075"/>
<path d="M0 684H514V832.563V1024H0V684Z" fill="#919FF8"/>
<path d="M1440 343.077H926V193.203V0.0769043H1440V343.077Z" fill="#919FF8"/>
<path d="M512.5 0H0V339H388L512.5 0Z" fill="#FE555D"/>
<path d="M1065.46 1024H1440V688H927L1065.46 1024Z" fill="#FFCF51"/>
<path d="M0 338.5V684H513.5L385.5 338.5H0Z" fill="#FFCF51"/>
<path d="M1440 688L1439.58 343L1057.98 343.497L927 688H1440Z" fill="#FE555D"/>
<path d="M515 684L390 1024H0V684H515Z" fill="#5B71EA"/>
<path d="M1055 343L925 0H1440V343H1055Z" fill="#5B71EA"/>
</svg>
