<svg width="1441" height="1024" viewBox="0 0 1441 1024" fill="none" xmlns="http://www.w3.org/2000/svg">
<path d="M0 0H514V149V341H0V0Z" fill="#FE7075"/>
<path d="M1440 1024L927 1024L927 876.311L927 686L1440 686L1440 1024Z" fill="#FFE597"/>
<path d="M0 339H514V489.748V684H0V339Z" fill="#FFE597"/>
<path d="M1440 688L926 688L926 537.252L926 343L1440 343L1440 688Z" fill="#FE7075"/>
<path d="M0 684H514V832.563V1024H0V684Z" fill="#919FF8"/>
<path d="M1440 343.077L926 343.077L926 193.203L926 0.0769062L1440 0.0769062L1440 343.077Z" fill="#919FF8"/>
<path d="M144.186 0H0V339H388L144.186 0Z" fill="#FE555D"/>
<path d="M1064 1024L1440 1024L1440 688L1296.32 688L1064 1024Z" fill="#FFCF51"/>
<path d="M0 338.5V684H143L385.5 338.5H0Z" fill="#FFCF51"/>
<path d="M1440 688L1439.58 343L1055 343.497L1293.27 688L1440 688Z" fill="#FE555D"/>
<path d="M142.683 684L390 1024H0V684H142.683Z" fill="#5B71EA"/>
<path d="M1055 343L1296 0L1440 0L1440 343L1055 343Z" fill="#5B71EA"/>
</svg>
