<svg width="390" height="844" viewBox="0 0 204 441" fill="none" xmlns="http://www.w3.org/2000/svg">
<g clip-path="url(#clip0_329_1465)">
<rect width="203.271" height="440.15" rx="21.6822" fill="#0D0D0D"/>
<g clip-path="url(#clip1_329_1465)">
<rect width="203.271" height="437.981" fill="url(#paint0_radial_329_1465)"/>
<rect x="1.08411" y="1.08411" width="201.103" height="435.813" stroke="url(#paint1_radial_329_1465)" stroke-width="2.16822"/>
<g filter="url(#filter0_f_329_1465)">
<path d="M72.9885 227.62L73.0045 199.348L49.7188 186.304L49.7029 214.56L73.004 227.62L72.9885 227.62ZM72.971 258.621L72.9864 231.374L49.3587 218.299L49.3438 244.63L72.971 258.636L72.971 258.621ZM98.9142 274.001L98.9299 246.329L75.6757 232.591L75.6601 260.215L98.9143 273.985L98.9142 274.001ZM78.8842 168.161L101.532 181.126L124.429 167.003L100.802 153.533L76.8946 166.93L78.8997 168.161L78.8842 168.161ZM125.963 259.423L125.978 232.634L102.133 246.567L102.117 274.192L125.963 259.407L125.963 259.423ZM127.771 196.459L151.803 182.558L127.647 168.819L105.248 182.532L127.787 196.46L127.771 196.459ZM151.786 212.675L151.801 186.281L128.873 199.6L128.5 226.909L151.786 212.659L151.786 212.675ZM151.768 243.424L151.784 216.067L128.856 230.348L128.84 257.673L151.768 243.424ZM74.6699 196.43L98.9658 182.608L75.7113 169.674L74.1569 168.711L74.0481 168.632L50.3581 183.165L74.6699 196.43Z" fill="url(#paint2_linear_329_1465)"/>
<path d="M102.106 211.986L102.587 184.913L125.997 199.425L125.92 225.946L102.106 211.986Z" fill="url(#paint3_linear_329_1465)" fill-opacity="0.69"/>
<path d="M75.7107 225.634L76.0369 198.703L99.7578 185.054L99.7426 212L75.7107 225.634Z" fill="url(#paint4_linear_329_1465)" fill-opacity="0.65"/>
<path d="M100.891 243.349L125.623 229.289L100.627 214.588L76.1757 228.473L100.891 243.349Z" fill="url(#paint5_linear_329_1465)" fill-opacity="0.81"/>
</g>
<path d="M194.264 164.301L187.927 161.752V156.654L194.264 159.203V164.301Z" fill="#6A325B"/>
<path d="M187.926 161.752L181.589 164.301V159.203L187.926 156.654V161.752Z" fill="#6A325B"/>
<path d="M187.926 166.85L181.589 164.301V159.203L187.926 161.752V166.85Z" fill="url(#paint6_linear_329_1465)" fill-opacity="0.6"/>
<path d="M187.927 166.85L194.264 164.301V159.203L187.927 161.752V166.85Z" fill="#B8C5FA" fill-opacity="0.75"/>
<path d="M194.264 159.203L187.926 156.654L181.589 159.203L187.926 161.752L194.264 159.203Z" fill="url(#paint7_linear_329_1465)"/>
<path d="M50.3355 236.604L50.1165 238.07C50.0394 238.569 49.9117 239.049 49.7333 239.512C49.5548 239.97 49.3176 240.375 49.0216 240.728C48.7255 241.081 48.3667 241.359 47.9449 241.562C47.5232 241.76 47.0345 241.854 46.4789 241.841C45.9477 241.829 45.5036 241.716 45.1468 241.501C44.794 241.286 44.5182 241 44.3195 240.643C44.1208 240.286 43.991 239.887 43.9302 239.445C43.8734 238.999 43.8734 238.544 43.9302 238.082L44.1492 236.61C44.2262 236.107 44.354 235.625 44.5324 235.162C44.7108 234.696 44.9481 234.278 45.2441 233.909C45.5442 233.54 45.9071 233.25 46.3329 233.039C46.7587 232.825 47.2535 232.725 47.8172 232.741C48.3565 232.754 48.8026 232.873 49.1554 233.1C49.5082 233.327 49.7819 233.627 49.9766 234.001C50.1712 234.37 50.2949 234.781 50.3476 235.235C50.4004 235.686 50.3963 236.142 50.3355 236.604ZM48.395 238.082L48.6079 236.58C48.6363 236.373 48.6566 236.14 48.6688 235.88C48.685 235.617 48.6708 235.361 48.6262 235.114C48.5816 234.862 48.4883 234.653 48.3464 234.487C48.2044 234.321 47.9855 234.232 47.6894 234.22C47.365 234.203 47.0933 234.268 46.8743 234.414C46.6594 234.56 46.485 234.757 46.3512 235.004C46.2174 235.248 46.114 235.509 46.041 235.789C45.972 236.069 45.9173 236.336 45.8767 236.592L45.6699 238.088C45.6415 238.299 45.6213 238.532 45.6091 238.788C45.5969 239.043 45.6152 239.291 45.6638 239.53C45.7165 239.765 45.8139 239.962 45.9558 240.12C46.1018 240.274 46.3228 240.357 46.6188 240.369C46.9311 240.386 47.1927 240.325 47.4035 240.187C47.6144 240.045 47.7868 239.858 47.9206 239.627C48.0544 239.396 48.1578 239.145 48.2308 238.873C48.3038 238.597 48.3585 238.334 48.395 238.082ZM54.4556 236.634L53.5736 241.72H51.8947L53.0383 235.138H54.6077L54.4556 236.634ZM53.9386 238.204L53.5554 238.228C53.5837 237.879 53.6486 237.516 53.75 237.139C53.8514 236.758 53.9974 236.403 54.188 236.075C54.3826 235.746 54.628 235.485 54.924 235.29C55.22 235.091 55.583 234.998 56.0128 235.01C56.3535 235.022 56.6211 235.108 56.8158 235.266C57.0145 235.424 57.1584 235.631 57.2477 235.886C57.3409 236.138 57.3937 236.407 57.4058 236.695C57.418 236.979 57.4099 237.259 57.3815 237.535L56.682 241.72H55.0213L55.7148 237.516C55.731 237.35 55.7351 237.186 55.7269 237.024C55.7229 236.857 55.6803 236.718 55.5992 236.604C55.5222 236.49 55.3782 236.434 55.1673 236.434C54.9483 236.422 54.7658 236.476 54.6199 236.598C54.4739 236.72 54.3542 236.876 54.261 237.066C54.1718 237.253 54.1008 237.448 54.0481 237.65C53.9994 237.853 53.9629 238.038 53.9386 238.204ZM61.8544 241.841C61.4165 241.833 61.0414 241.748 60.7291 241.586C60.4168 241.424 60.1674 241.203 59.9809 240.923C59.7944 240.639 59.6666 240.319 59.5977 239.962C59.5287 239.601 59.5145 239.216 59.5551 238.806L59.6159 238.265C59.6727 237.843 59.7721 237.435 59.914 237.042C60.0559 236.649 60.2465 236.298 60.4858 235.99C60.7291 235.677 61.0272 235.434 61.38 235.26C61.7328 235.085 62.1464 235.002 62.6209 235.01C63.0751 235.022 63.4421 235.124 63.7219 235.314C64.0057 235.501 64.2186 235.748 64.3606 236.057C64.5066 236.365 64.5958 236.707 64.6282 237.085C64.6607 237.458 64.6526 237.835 64.6039 238.216L64.4944 238.995H60.206L60.4189 237.796L63.0163 237.802L63.0467 237.632C63.0751 237.462 63.0852 237.285 63.0771 237.103C63.069 236.916 63.0203 236.76 62.9311 236.634C62.8419 236.505 62.6878 236.434 62.4688 236.422C62.2295 236.409 62.0349 236.464 61.8848 236.586C61.7389 236.703 61.6253 236.86 61.5442 237.054C61.4631 237.249 61.4043 237.454 61.3678 237.669C61.3354 237.879 61.309 238.078 61.2887 238.265L61.2218 238.812C61.2015 238.995 61.1934 239.179 61.1975 239.366C61.2015 239.548 61.2259 239.718 61.2705 239.877C61.3191 240.035 61.4043 240.165 61.526 240.266C61.6517 240.367 61.8301 240.42 62.0612 240.424C62.3451 240.432 62.6067 240.379 62.8459 240.266C63.0893 240.152 63.3163 240.006 63.5272 239.828L64.0929 240.868C63.9226 241.095 63.7158 241.284 63.4725 241.434C63.2292 241.58 62.9656 241.685 62.6817 241.75C62.4019 241.815 62.1261 241.845 61.8544 241.841ZM73.8418 232.863L72.3028 241.72H70.5692L72.1081 232.863H73.8418ZM78.339 240.187L79.6894 232.376H81.3561L79.7381 241.72L78.2356 241.726L78.339 240.187ZM75.2915 238.66L75.3402 238.234C75.3888 237.877 75.4639 237.508 75.5652 237.127C75.6666 236.742 75.8126 236.387 76.0032 236.063C76.1979 235.734 76.4452 235.475 76.7453 235.284C77.0454 235.089 77.4165 235 77.8585 235.016C78.2194 235.029 78.5094 235.144 78.7283 235.363C78.9473 235.582 79.1095 235.856 79.215 236.184C79.3204 236.513 79.3853 236.853 79.4096 237.206C79.438 237.555 79.4441 237.869 79.4279 238.149L79.3488 238.782C79.292 239.078 79.2048 239.404 79.0872 239.761C78.9737 240.118 78.8196 240.457 78.6249 240.777C78.4303 241.097 78.1951 241.359 77.9193 241.562C77.6476 241.764 77.3252 241.86 76.9521 241.847C76.5344 241.839 76.206 241.732 75.9667 241.525C75.7275 241.314 75.5531 241.047 75.4436 240.722C75.3381 240.398 75.2773 240.053 75.2611 239.688C75.2489 239.323 75.2591 238.98 75.2915 238.66ZM77.019 238.222L76.9765 238.672C76.9643 238.81 76.9481 238.976 76.9278 239.171C76.9116 239.362 76.9136 239.552 76.9339 239.743C76.9582 239.933 77.017 240.094 77.1103 240.223C77.2076 240.349 77.3597 240.414 77.5665 240.418C77.8179 240.426 78.0248 240.359 78.187 240.217C78.3492 240.075 78.4749 239.899 78.5641 239.688C78.6533 239.473 78.7121 239.26 78.7405 239.049L78.9047 237.888C78.9169 237.75 78.9189 237.6 78.9108 237.437C78.9068 237.275 78.8845 237.119 78.8439 236.969C78.8074 236.819 78.7364 236.695 78.631 236.598C78.5296 236.501 78.3877 236.448 78.2052 236.44C77.97 236.42 77.7774 236.468 77.6273 236.586C77.4813 236.699 77.3678 236.851 77.2867 237.042C77.2056 237.233 77.1448 237.433 77.1042 237.644C77.0637 237.855 77.0353 238.048 77.019 238.222ZM84.941 241.841C84.503 241.833 84.1279 241.748 83.8157 241.586C83.5034 241.424 83.254 241.203 83.0675 240.923C82.8809 240.639 82.7532 240.319 82.6842 239.962C82.6153 239.601 82.6011 239.216 82.6417 238.806L82.7025 238.265C82.7593 237.843 82.8586 237.435 83.0005 237.042C83.1425 236.649 83.3331 236.298 83.5723 235.99C83.8157 235.677 84.1137 235.434 84.4665 235.26C84.8193 235.085 85.233 235.002 85.7074 235.01C86.1616 235.022 86.5286 235.124 86.8084 235.314C87.0923 235.501 87.3052 235.748 87.4471 236.057C87.5931 236.365 87.6823 236.707 87.7148 237.085C87.7472 237.458 87.7391 237.835 87.6904 238.216L87.581 238.995H83.2925L83.5054 237.796L86.1028 237.802L86.1332 237.632C86.1616 237.462 86.1718 237.285 86.1636 237.103C86.1555 236.916 86.1069 236.76 86.0177 236.634C85.9284 236.505 85.7743 236.434 85.5554 236.422C85.3161 236.409 85.1214 236.464 84.9714 236.586C84.8254 236.703 84.7119 236.86 84.6308 237.054C84.5497 237.249 84.4909 237.454 84.4544 237.669C84.4219 237.879 84.3956 238.078 84.3753 238.265L84.3084 238.812C84.2881 238.995 84.28 239.179 84.284 239.366C84.2881 239.548 84.3124 239.718 84.357 239.877C84.4057 240.035 84.4909 240.165 84.6125 240.266C84.7382 240.367 84.9167 240.42 85.1478 240.424C85.4317 240.432 85.6932 240.379 85.9325 240.266C86.1758 240.152 86.4029 240.006 86.6138 239.828L87.1795 240.868C87.0092 241.095 86.8023 241.284 86.559 241.434C86.3157 241.58 86.0521 241.685 85.7683 241.75C85.4884 241.815 85.2127 241.845 84.941 241.841ZM92.4493 240.205L92.9359 237.151C92.9481 237.034 92.9501 236.914 92.942 236.793C92.9339 236.671 92.8994 236.568 92.8386 236.482C92.7818 236.393 92.6784 236.347 92.5284 236.342C92.3662 236.338 92.2364 236.373 92.1391 236.446C92.0417 236.519 91.9667 236.614 91.914 236.732C91.8613 236.849 91.8227 236.973 91.7984 237.103L90.1317 237.115C90.152 236.782 90.2351 236.486 90.3811 236.227C90.5312 235.963 90.7238 235.74 90.959 235.558C91.1942 235.375 91.4578 235.237 91.7498 235.144C92.0458 235.051 92.352 235.006 92.6683 235.01C93.1062 235.018 93.4773 235.114 93.7814 235.296C94.0856 235.479 94.3086 235.73 94.4506 236.05C94.5925 236.371 94.6412 236.75 94.5965 237.188L94.1282 240.126C94.0917 240.365 94.0592 240.615 94.0308 240.874C94.0065 241.13 94.0349 241.377 94.116 241.616L94.1099 241.72L92.4858 241.726C92.4128 241.478 92.3803 241.227 92.3885 240.972C92.3966 240.712 92.4168 240.457 92.4493 240.205ZM93.088 237.699L92.9177 238.721L92.3763 238.715C92.2181 238.719 92.0721 238.749 91.9383 238.806C91.8086 238.859 91.691 238.936 91.5855 239.037C91.4841 239.135 91.401 239.248 91.3361 239.378C91.2753 239.504 91.2368 239.645 91.2205 239.804C91.2043 239.909 91.2023 240.017 91.2145 240.126C91.2307 240.231 91.2692 240.321 91.33 240.394C91.3949 240.467 91.4922 240.505 91.622 240.509C91.7639 240.509 91.9039 240.481 92.0417 240.424C92.1796 240.363 92.2952 240.278 92.3885 240.169C92.4817 240.059 92.5365 239.931 92.5527 239.785L92.8568 240.467C92.7879 240.649 92.7007 240.826 92.5953 240.996C92.4939 241.162 92.3722 241.312 92.2303 241.446C92.0924 241.576 91.9343 241.677 91.7558 241.75C91.5815 241.823 91.3828 241.858 91.1597 241.854C90.8069 241.849 90.5028 241.758 90.2473 241.58C89.9959 241.397 89.8073 241.162 89.6816 240.874C89.5559 240.586 89.5011 240.27 89.5173 239.925C89.5336 239.536 89.6228 239.201 89.785 238.922C89.9472 238.638 90.156 238.405 90.4115 238.222C90.6711 238.04 90.9651 237.906 91.2935 237.821C91.6261 237.735 91.9728 237.693 92.3337 237.693L93.088 237.699ZM104.948 234.53L101.876 241.72H99.99L104.212 232.863H105.398L104.948 234.53ZM105.173 241.72L104.564 234.384L104.662 232.863H105.787L106.961 241.72H105.173ZM105.799 238.417L105.538 239.895H101.645L101.906 238.417H105.799ZM112.839 235.138L112.608 236.422H109.341L109.573 235.138H112.839ZM110.607 233.514H112.261L111.203 239.725C111.191 239.834 111.185 239.937 111.185 240.035C111.185 240.132 111.207 240.213 111.251 240.278C111.3 240.343 111.389 240.377 111.519 240.381C111.588 240.381 111.655 240.377 111.72 240.369C111.789 240.361 111.858 240.351 111.927 240.339L111.793 241.683C111.651 241.736 111.507 241.774 111.361 241.799C111.215 241.823 111.065 241.833 110.911 241.829C110.534 241.825 110.24 241.732 110.029 241.549C109.818 241.363 109.674 241.126 109.597 240.838C109.52 240.546 109.498 240.231 109.53 239.895L110.607 233.514ZM122.503 234.53L119.431 241.72H117.545L121.767 232.863H122.953L122.503 234.53ZM122.728 241.72L122.12 234.384L122.217 232.863H123.342L124.516 241.72H122.728ZM123.354 238.417L123.093 239.895H119.2L119.461 238.417H123.354ZM135.396 232.863L133.857 241.72H132.124L133.663 232.863H135.396ZM137.525 232.863L137.27 234.341H131.315L131.57 232.863H137.525ZM141.086 235.138L139.942 241.72H138.276L139.419 235.138H141.086ZM139.638 233.465C139.634 233.202 139.717 232.979 139.888 232.796C140.058 232.614 140.279 232.52 140.551 232.516C140.806 232.512 141.019 232.593 141.189 232.76C141.36 232.926 141.443 233.139 141.439 233.398C141.447 233.662 141.366 233.885 141.195 234.067C141.029 234.25 140.81 234.343 140.539 234.347C140.283 234.355 140.07 234.276 139.9 234.11C139.729 233.94 139.642 233.725 139.638 233.465ZM145.097 236.592L144.209 241.72H142.542L143.685 235.138H145.249L145.097 236.592ZM144.598 238.204L144.16 238.222C144.196 237.869 144.265 237.502 144.367 237.121C144.472 236.74 144.618 236.387 144.805 236.063C144.995 235.738 145.241 235.479 145.541 235.284C145.841 235.089 146.208 234.998 146.642 235.01C146.958 235.018 147.207 235.095 147.39 235.241C147.576 235.387 147.716 235.576 147.81 235.807C147.903 236.038 147.96 236.288 147.98 236.555C148 236.819 147.996 237.076 147.968 237.328L147.244 241.72H145.583L146.277 237.529C146.293 237.383 146.301 237.224 146.301 237.054C146.301 236.884 146.265 236.74 146.192 236.622C146.119 236.501 145.981 236.434 145.778 236.422C145.567 236.417 145.389 236.476 145.243 236.598C145.097 236.716 144.981 236.87 144.896 237.06C144.811 237.251 144.744 237.45 144.695 237.656C144.651 237.859 144.618 238.042 144.598 238.204ZM147.73 238.034L147.177 238.125C147.205 237.784 147.266 237.431 147.359 237.066C147.453 236.697 147.593 236.357 147.779 236.044C147.966 235.728 148.203 235.475 148.491 235.284C148.783 235.093 149.14 235.002 149.561 235.01C149.902 235.018 150.174 235.102 150.377 235.26C150.579 235.414 150.727 235.617 150.821 235.868C150.918 236.119 150.975 236.389 150.991 236.677C151.007 236.965 151.001 237.247 150.973 237.523L150.273 241.72H148.6L149.294 237.523C149.31 237.377 149.318 237.22 149.318 237.054C149.318 236.884 149.282 236.74 149.209 236.622C149.14 236.501 149.004 236.438 148.801 236.434C148.606 236.43 148.446 236.482 148.321 236.592C148.195 236.697 148.091 236.835 148.01 237.005C147.929 237.176 147.866 237.352 147.822 237.535C147.781 237.717 147.751 237.883 147.73 238.034ZM155.47 241.841C155.032 241.833 154.657 241.748 154.345 241.586C154.032 241.424 153.783 241.203 153.596 240.923C153.41 240.639 153.282 240.319 153.213 239.962C153.144 239.601 153.13 239.216 153.171 238.806L153.231 238.265C153.288 237.843 153.388 237.435 153.53 237.042C153.671 236.649 153.862 236.298 154.101 235.99C154.345 235.677 154.643 235.434 154.995 235.26C155.348 235.085 155.762 235.002 156.236 235.01C156.691 235.022 157.058 235.124 157.337 235.314C157.621 235.501 157.834 235.748 157.976 236.057C158.122 236.365 158.211 236.707 158.244 237.085C158.276 237.458 158.268 237.835 158.219 238.216L158.11 238.995H153.821L154.034 237.796L156.632 237.802L156.662 237.632C156.691 237.462 156.701 237.285 156.693 237.103C156.684 236.916 156.636 236.76 156.547 236.634C156.457 236.505 156.303 236.434 156.084 236.422C155.845 236.409 155.65 236.464 155.5 236.586C155.354 236.703 155.241 236.86 155.16 237.054C155.079 237.249 155.02 237.454 154.983 237.669C154.951 237.879 154.925 238.078 154.904 238.265L154.837 238.812C154.817 238.995 154.809 239.179 154.813 239.366C154.817 239.548 154.841 239.718 154.886 239.877C154.935 240.035 155.02 240.165 155.141 240.266C155.267 240.367 155.446 240.42 155.677 240.424C155.961 240.432 156.222 240.379 156.461 240.266C156.705 240.152 156.932 240.006 157.143 239.828L157.708 240.868C157.538 241.095 157.331 241.284 157.088 241.434C156.845 241.58 156.581 241.685 156.297 241.75C156.017 241.815 155.742 241.845 155.47 241.841Z" fill="white"/>
<path d="M38.7688 172.25H42.0237V182.722C42.0237 183.942 41.7624 184.969 41.2399 185.803C40.7246 186.638 40.0098 187.266 39.0953 187.686C38.1882 188.107 37.1431 188.318 35.9602 188.318C34.7772 188.318 33.7249 188.107 32.8032 187.686C31.8888 187.266 31.1703 186.638 30.6478 185.803C30.1325 184.969 29.8749 183.942 29.8749 182.722V172.25H33.1407V182.722C33.1407 183.434 33.2532 184.014 33.4782 184.464C33.7031 184.914 34.0261 185.244 34.447 185.455C34.8752 185.665 35.3796 185.77 35.9602 185.77C36.5553 185.77 37.0597 185.665 37.4733 185.455C37.8943 185.244 38.2136 184.914 38.4313 184.464C38.6563 184.014 38.7688 183.434 38.7688 182.722V172.25ZM58.5042 172.25V188.1H55.2384L48.8701 177.475V188.1H45.6043V172.25H48.8701L55.2493 182.886V172.25H58.5042ZM72.4266 185.553V188.1H64.4471V185.553H72.4266ZM65.5031 172.25V188.1H62.2373V172.25H65.5031ZM85.8264 185.553V188.1H77.3897V185.553H85.8264ZM78.4565 172.25V188.1H75.1907V172.25H78.4565ZM84.7269 178.705V181.187H77.3897V178.705H84.7269ZM85.8155 172.25V174.808H77.3897V172.25H85.8155ZM95.0677 174.961L90.7569 188.1H87.2842L93.1736 172.25H95.3834L95.0677 174.961ZM98.6492 188.1L94.3275 174.961L93.9791 172.25H96.2108L102.133 188.1H98.6492ZM98.4533 182.2V184.758H90.0819V182.2H98.4533ZM112.746 183.953C112.746 183.669 112.702 183.415 112.615 183.191C112.535 182.958 112.383 182.748 112.158 182.559C111.933 182.363 111.617 182.171 111.211 181.982C110.804 181.793 110.278 181.598 109.632 181.394C108.914 181.162 108.232 180.901 107.586 180.611C106.947 180.32 106.381 179.983 105.888 179.598C105.401 179.206 105.017 178.753 104.734 178.237C104.458 177.722 104.32 177.123 104.32 176.441C104.32 175.781 104.465 175.182 104.755 174.645C105.046 174.101 105.452 173.636 105.975 173.252C106.497 172.86 107.114 172.559 107.825 172.348C108.544 172.138 109.331 172.032 110.188 172.032C111.356 172.032 112.376 172.243 113.246 172.664C114.117 173.085 114.792 173.662 115.271 174.395C115.758 175.128 116.001 175.966 116.001 176.909H112.757C112.757 176.445 112.659 176.038 112.463 175.69C112.274 175.334 111.984 175.055 111.592 174.852C111.207 174.649 110.721 174.547 110.133 174.547C109.567 174.547 109.095 174.634 108.718 174.808C108.341 174.975 108.058 175.204 107.869 175.494C107.68 175.777 107.586 176.096 107.586 176.452C107.586 176.721 107.651 176.964 107.782 177.181C107.92 177.399 108.123 177.602 108.391 177.791C108.66 177.98 108.99 178.158 109.382 178.324C109.774 178.491 110.227 178.655 110.743 178.814C111.606 179.076 112.365 179.37 113.018 179.696C113.678 180.023 114.23 180.389 114.673 180.796C115.115 181.202 115.449 181.663 115.674 182.178C115.899 182.693 116.012 183.278 116.012 183.931C116.012 184.62 115.877 185.237 115.609 185.781C115.34 186.326 114.952 186.787 114.444 187.164C113.936 187.541 113.33 187.828 112.626 188.024C111.922 188.22 111.135 188.318 110.264 188.318C109.48 188.318 108.707 188.216 107.945 188.013C107.183 187.803 106.49 187.487 105.866 187.066C105.249 186.645 104.755 186.108 104.385 185.455C104.015 184.802 103.83 184.029 103.83 183.136H107.107C107.107 183.63 107.183 184.047 107.335 184.388C107.488 184.729 107.702 185.005 107.978 185.215C108.261 185.426 108.595 185.578 108.979 185.673C109.371 185.767 109.799 185.814 110.264 185.814C110.83 185.814 111.294 185.734 111.657 185.575C112.027 185.415 112.299 185.194 112.474 184.91C112.655 184.627 112.746 184.308 112.746 183.953ZM129.694 178.705V181.253H121.421V178.705H129.694ZM122.39 172.25V188.1H119.124V172.25H122.39ZM132.024 172.25V188.1H128.769V172.25H132.024ZM139.23 172.25V188.1H135.975V172.25H139.23ZM156.08 172.25V188.1H152.815L146.446 177.475V188.1H143.18V172.25H146.446L152.825 182.886V172.25H156.08ZM172.376 179.816V186.097C172.129 186.395 171.748 186.718 171.233 187.066C170.718 187.407 170.053 187.701 169.241 187.948C168.428 188.194 167.444 188.318 166.291 188.318C165.267 188.318 164.335 188.151 163.493 187.817C162.651 187.476 161.925 186.979 161.316 186.326C160.713 185.673 160.249 184.874 159.922 183.931C159.596 182.98 159.432 181.895 159.432 180.676V179.685C159.432 178.466 159.588 177.381 159.9 176.43C160.22 175.48 160.673 174.678 161.261 174.024C161.849 173.371 162.549 172.874 163.362 172.533C164.175 172.192 165.079 172.021 166.073 172.021C167.452 172.021 168.584 172.246 169.469 172.696C170.355 173.139 171.03 173.756 171.494 174.547C171.966 175.331 172.256 176.231 172.365 177.247H169.197C169.117 176.71 168.965 176.242 168.74 175.842C168.515 175.443 168.192 175.131 167.771 174.906C167.357 174.681 166.82 174.569 166.16 174.569C165.616 174.569 165.129 174.681 164.701 174.906C164.28 175.124 163.925 175.447 163.634 175.875C163.344 176.303 163.123 176.833 162.97 177.464C162.818 178.096 162.742 178.829 162.742 179.663V180.676C162.742 181.503 162.822 182.236 162.981 182.875C163.141 183.506 163.377 184.04 163.689 184.475C164.008 184.903 164.4 185.226 164.864 185.444C165.329 185.662 165.87 185.77 166.487 185.77C167.002 185.77 167.43 185.727 167.771 185.64C168.119 185.553 168.399 185.448 168.609 185.324C168.827 185.194 168.994 185.07 169.11 184.954V182.145H166.127V179.816H172.376ZM28.6243 208.45H24.5856V205.903H28.6243C29.2484 205.903 29.7564 205.801 30.1483 205.598C30.5402 205.388 30.8269 205.097 31.0083 204.727C31.1898 204.357 31.2805 203.94 31.2805 203.475C31.2805 203.004 31.1898 202.565 31.0083 202.158C30.8269 201.752 30.5402 201.425 30.1483 201.178C29.7564 200.932 29.2484 200.808 28.6243 200.808H25.7177V214.1H22.4519V198.25H28.6243C29.8653 198.25 30.9285 198.475 31.8139 198.925C32.7066 199.368 33.3887 199.981 33.8605 200.765C34.3322 201.549 34.5681 202.445 34.5681 203.454C34.5681 204.477 34.3322 205.362 33.8605 206.11C33.3887 206.857 32.7066 207.434 31.8139 207.841C30.9285 208.247 29.8653 208.45 28.6243 208.45ZM50.7329 205.805V206.556C50.7329 207.761 50.5696 208.842 50.243 209.8C49.9165 210.758 49.4556 211.575 48.8605 212.249C48.2654 212.917 47.5542 213.429 46.7269 213.784C45.9068 214.14 44.996 214.318 43.9945 214.318C43.0002 214.318 42.0894 214.14 41.2621 213.784C40.442 213.429 39.7308 212.917 39.1284 212.249C38.5261 211.575 38.058 210.758 37.7241 209.8C37.3976 208.842 37.2343 207.761 37.2343 206.556V205.805C37.2343 204.593 37.3976 203.512 37.7241 202.561C38.0507 201.603 38.5116 200.787 39.1067 200.112C39.709 199.437 40.4202 198.921 41.2403 198.566C42.0677 198.21 42.9785 198.032 43.9727 198.032C44.9742 198.032 45.885 198.21 46.7051 198.566C47.5324 198.921 48.2437 199.437 48.8388 200.112C49.4411 200.787 49.9056 201.603 50.2322 202.561C50.566 203.512 50.7329 204.593 50.7329 205.805ZM47.4345 206.556V205.783C47.4345 204.941 47.3583 204.201 47.2059 203.562C47.0534 202.924 46.8285 202.387 46.5309 201.951C46.2334 201.516 45.8705 201.189 45.4423 200.972C45.0141 200.747 44.5243 200.634 43.9727 200.634C43.4211 200.634 42.9313 200.747 42.5031 200.972C42.0822 201.189 41.7229 201.516 41.4254 201.951C41.1351 202.387 40.9137 202.924 40.7613 203.562C40.6089 204.201 40.5327 204.941 40.5327 205.783V206.556C40.5327 207.391 40.6089 208.131 40.7613 208.777C40.9137 209.415 41.1387 209.956 41.4363 210.399C41.7338 210.834 42.0967 211.165 42.5249 211.389C42.953 211.614 43.4429 211.727 43.9945 211.727C44.546 211.727 45.0359 211.614 45.4641 211.389C45.8923 211.165 46.2515 210.834 46.5418 210.399C46.8321 209.956 47.0534 209.415 47.2059 208.777C47.3583 208.131 47.4345 207.391 47.4345 206.556ZM62.2277 209.953C62.2277 209.669 62.1841 209.415 62.097 209.191C62.0172 208.958 61.8648 208.748 61.6398 208.559C61.4149 208.363 61.0992 208.171 60.6927 207.982C60.2863 207.793 59.7602 207.598 59.1143 207.394C58.3958 207.162 57.7136 206.901 57.0677 206.611C56.4291 206.32 55.863 205.983 55.3695 205.598C54.8832 205.206 54.4986 204.753 54.2156 204.237C53.9398 203.722 53.8019 203.123 53.8019 202.441C53.8019 201.781 53.947 201.182 54.2373 200.645C54.5276 200.101 54.934 199.636 55.4566 199.252C55.9791 198.86 56.596 198.559 57.3072 198.348C58.0257 198.138 58.8131 198.032 59.6695 198.032C60.8379 198.032 61.8576 198.243 62.7284 198.664C63.5993 199.085 64.2742 199.662 64.7532 200.395C65.2395 201.128 65.4826 201.966 65.4826 202.909H62.2386C62.2386 202.445 62.1406 202.038 61.9446 201.69C61.7559 201.334 61.4657 201.055 61.0738 200.852C60.6891 200.649 60.2029 200.547 59.615 200.547C59.049 200.547 58.5772 200.634 58.1999 200.808C57.8225 200.975 57.5394 201.204 57.3507 201.494C57.1621 201.777 57.0677 202.096 57.0677 202.452C57.0677 202.721 57.133 202.964 57.2637 203.181C57.4015 203.399 57.6047 203.602 57.8733 203.791C58.1418 203.98 58.472 204.158 58.8639 204.324C59.2558 204.491 59.7094 204.655 60.2247 204.814C61.0883 205.076 61.8467 205.37 62.4998 205.696C63.1602 206.023 63.7118 206.389 64.1545 206.796C64.5972 207.202 64.931 207.663 65.156 208.178C65.381 208.693 65.4935 209.278 65.4935 209.931C65.4935 210.62 65.3592 211.237 65.0907 211.781C64.8222 212.326 64.4339 212.787 63.9259 213.164C63.4179 213.541 62.8119 213.828 62.1079 214.024C61.404 214.22 60.6165 214.318 59.7457 214.318C58.9619 214.318 58.189 214.216 57.4269 214.013C56.6649 213.803 55.9718 213.487 55.3477 213.066C54.7308 212.645 54.2373 212.108 53.8672 211.455C53.4971 210.802 53.312 210.029 53.312 209.136H56.5887C56.5887 209.63 56.6649 210.047 56.8173 210.388C56.9697 210.729 57.1838 211.005 57.4596 211.215C57.7426 211.426 58.0765 211.578 58.4611 211.673C58.853 211.767 59.2812 211.814 59.7457 211.814C60.3117 211.814 60.7762 211.734 61.1391 211.575C61.5092 211.415 61.7813 211.194 61.9555 210.91C62.137 210.627 62.2277 210.308 62.2277 209.953ZM76.8576 209.953C76.8576 209.669 76.8141 209.415 76.727 209.191C76.6471 208.958 76.4947 208.748 76.2698 208.559C76.0448 208.363 75.7291 208.171 75.3227 207.982C74.9163 207.793 74.3901 207.598 73.7442 207.394C73.0257 207.162 72.3435 206.901 71.6976 206.611C71.059 206.32 70.4929 205.983 69.9994 205.598C69.5132 205.206 69.1285 204.753 68.8455 204.237C68.5697 203.722 68.4318 203.123 68.4318 202.441C68.4318 201.781 68.577 201.182 68.8673 200.645C69.1576 200.101 69.564 199.636 70.0865 199.252C70.609 198.86 71.2259 198.559 71.9371 198.348C72.6556 198.138 73.443 198.032 74.2994 198.032C75.4678 198.032 76.4875 198.243 77.3584 198.664C78.2292 199.085 78.9042 199.662 79.3832 200.395C79.8694 201.128 80.1125 201.966 80.1125 202.909H76.8685C76.8685 202.445 76.7705 202.038 76.5746 201.69C76.3859 201.334 76.0956 201.055 75.7037 200.852C75.319 200.649 74.8328 200.547 74.245 200.547C73.6789 200.547 73.2072 200.634 72.8298 200.808C72.4524 200.975 72.1694 201.204 71.9807 201.494C71.792 201.777 71.6976 202.096 71.6976 202.452C71.6976 202.721 71.763 202.964 71.8936 203.181C72.0315 203.399 72.2347 203.602 72.5032 203.791C72.7717 203.98 73.1019 204.158 73.4938 204.324C73.8857 204.491 74.3393 204.655 74.8546 204.814C75.7182 205.076 76.4766 205.37 77.1298 205.696C77.7902 206.023 78.3417 206.389 78.7844 206.796C79.2271 207.202 79.561 207.663 79.7859 208.178C80.0109 208.693 80.1234 209.278 80.1234 209.931C80.1234 210.62 79.9891 211.237 79.7206 211.781C79.4521 212.326 79.0638 212.787 78.5558 213.164C78.0478 213.541 77.4418 213.828 76.7379 214.024C76.0339 214.22 75.2465 214.318 74.3756 214.318C73.5918 214.318 72.8189 214.216 72.0569 214.013C71.2949 213.803 70.6018 213.487 69.9776 213.066C69.3608 212.645 68.8673 212.108 68.4971 211.455C68.127 210.802 67.942 210.029 67.942 209.136H71.2187C71.2187 209.63 71.2949 210.047 71.4473 210.388C71.5997 210.729 71.8138 211.005 72.0895 211.215C72.3726 211.426 72.7064 211.578 73.091 211.673C73.4829 211.767 73.9111 211.814 74.3756 211.814C74.9417 211.814 75.4061 211.734 75.769 211.575C76.1391 211.415 76.4113 211.194 76.5855 210.91C76.7669 210.627 76.8576 210.308 76.8576 209.953ZM86.7086 198.25V214.1H83.4537V198.25H86.7086ZM96.8644 207.144H92.793L92.7712 204.901H96.1894C96.7918 204.901 97.2853 204.825 97.6699 204.673C98.0546 204.513 98.3412 204.285 98.5299 203.987C98.7259 203.682 98.8238 203.312 98.8238 202.877C98.8238 202.383 98.7295 201.984 98.5408 201.679C98.3594 201.374 98.0727 201.153 97.6808 201.015C97.2962 200.877 96.799 200.808 96.1894 200.808H93.9251V214.1H90.6593V198.25H96.1894C97.1111 198.25 97.9348 198.337 98.6605 198.511C99.3935 198.686 100.014 198.95 100.522 199.306C101.03 199.662 101.418 200.112 101.687 200.656C101.955 201.193 102.09 201.832 102.09 202.572C102.09 203.225 101.941 203.827 101.643 204.379C101.353 204.93 100.892 205.38 100.261 205.729C99.6367 206.077 98.8202 206.269 97.8114 206.306L96.8644 207.144ZM96.7228 214.1H91.9003L93.174 211.553H96.7228C97.2962 211.553 97.7643 211.462 98.1271 211.281C98.49 211.092 98.7585 210.838 98.9327 210.519C99.1069 210.199 99.194 209.833 99.194 209.419C99.194 208.955 99.1141 208.552 98.9545 208.211C98.8021 207.87 98.5553 207.608 98.2142 207.427C97.8731 207.238 97.4232 207.144 96.8644 207.144H93.7183L93.7401 204.901H97.659L98.4102 205.783C99.3754 205.769 100.152 205.939 100.74 206.295C101.335 206.643 101.767 207.097 102.035 207.656C102.311 208.214 102.449 208.813 102.449 209.452C102.449 210.468 102.228 211.324 101.785 212.021C101.342 212.71 100.693 213.229 99.8362 213.578C98.9871 213.926 97.9493 214.1 96.7228 214.1ZM109.263 198.25V214.1H106.008V198.25H109.263ZM123.403 211.553V214.1H115.423V211.553H123.403ZM116.479 198.25V214.1H113.213V198.25H116.479ZM129.64 198.25V214.1H126.385V198.25H129.64ZM140.35 198.25V214.1H137.096V198.25H140.35ZM145.227 198.25V200.808H132.295V198.25H145.227ZM151.453 198.25V214.1H148.198V198.25H151.453ZM166.04 211.553V214.1H157.603V211.553H166.04ZM158.67 198.25V214.1H155.404V198.25H158.67ZM164.94 204.705V207.187H157.603V204.705H164.94ZM166.029 198.25V200.808H157.603V198.25H166.029ZM177.088 209.953C177.088 209.669 177.045 209.415 176.958 209.191C176.878 208.958 176.725 208.748 176.5 208.559C176.275 208.363 175.96 208.171 175.553 207.982C175.147 207.793 174.621 207.598 173.975 207.394C173.256 207.162 172.574 206.901 171.928 206.611C171.29 206.32 170.723 205.983 170.23 205.598C169.744 205.206 169.359 204.753 169.076 204.237C168.8 203.722 168.662 203.123 168.662 202.441C168.662 201.781 168.808 201.182 169.098 200.645C169.388 200.101 169.795 199.636 170.317 199.252C170.84 198.86 171.456 198.559 172.168 198.348C172.886 198.138 173.674 198.032 174.53 198.032C175.698 198.032 176.718 198.243 177.589 198.664C178.46 199.085 179.135 199.662 179.614 200.395C180.1 201.128 180.343 201.966 180.343 202.909H177.099C177.099 202.445 177.001 202.038 176.805 201.69C176.616 201.334 176.326 201.055 175.934 200.852C175.55 200.649 175.063 200.547 174.476 200.547C173.909 200.547 173.438 200.634 173.06 200.808C172.683 200.975 172.4 201.204 172.211 201.494C172.023 201.777 171.928 202.096 171.928 202.452C171.928 202.721 171.994 202.964 172.124 203.181C172.262 203.399 172.465 203.602 172.734 203.791C173.002 203.98 173.332 204.158 173.724 204.324C174.116 204.491 174.57 204.655 175.085 204.814C175.949 205.076 176.707 205.37 177.36 205.696C178.021 206.023 178.572 206.389 179.015 206.796C179.458 207.202 179.792 207.663 180.017 208.178C180.241 208.693 180.354 209.278 180.354 209.931C180.354 210.62 180.22 211.237 179.951 211.781C179.683 212.326 179.294 212.787 178.786 213.164C178.278 213.541 177.672 213.828 176.968 214.024C176.264 214.22 175.477 214.318 174.606 214.318C173.822 214.318 173.049 214.216 172.287 214.013C171.525 213.803 170.832 213.487 170.208 213.066C169.591 212.645 169.098 212.108 168.728 211.455C168.358 210.802 168.173 210.029 168.173 209.136H171.449C171.449 209.63 171.525 210.047 171.678 210.388C171.83 210.729 172.044 211.005 172.32 211.215C172.603 211.426 172.937 211.578 173.322 211.673C173.714 211.767 174.142 211.814 174.606 211.814C175.172 211.814 175.637 211.734 176 211.575C176.37 211.415 176.642 211.194 176.816 210.91C176.997 210.627 177.088 210.308 177.088 209.953Z" fill="white"/>
<path d="M38.7688 172.25H42.0237V182.722C42.0237 183.942 41.7624 184.969 41.2399 185.803C40.7246 186.638 40.0098 187.266 39.0953 187.686C38.1882 188.107 37.1431 188.318 35.9602 188.318C34.7772 188.318 33.7249 188.107 32.8032 187.686C31.8888 187.266 31.1703 186.638 30.6478 185.803C30.1325 184.969 29.8749 183.942 29.8749 182.722V172.25H33.1407V182.722C33.1407 183.434 33.2532 184.014 33.4782 184.464C33.7031 184.914 34.0261 185.244 34.447 185.455C34.8752 185.665 35.3796 185.77 35.9602 185.77C36.5553 185.77 37.0597 185.665 37.4733 185.455C37.8943 185.244 38.2136 184.914 38.4313 184.464C38.6563 184.014 38.7688 183.434 38.7688 182.722V172.25ZM58.5042 172.25V188.1H55.2384L48.8701 177.475V188.1H45.6043V172.25H48.8701L55.2493 182.886V172.25H58.5042ZM72.4266 185.553V188.1H64.4471V185.553H72.4266ZM65.5031 172.25V188.1H62.2373V172.25H65.5031ZM85.8264 185.553V188.1H77.3897V185.553H85.8264ZM78.4565 172.25V188.1H75.1907V172.25H78.4565ZM84.7269 178.705V181.187H77.3897V178.705H84.7269ZM85.8155 172.25V174.808H77.3897V172.25H85.8155ZM95.0677 174.961L90.7569 188.1H87.2842L93.1736 172.25H95.3834L95.0677 174.961ZM98.6492 188.1L94.3275 174.961L93.9791 172.25H96.2108L102.133 188.1H98.6492ZM98.4533 182.2V184.758H90.0819V182.2H98.4533ZM112.746 183.953C112.746 183.669 112.702 183.415 112.615 183.191C112.535 182.958 112.383 182.748 112.158 182.559C111.933 182.363 111.617 182.171 111.211 181.982C110.804 181.793 110.278 181.598 109.632 181.394C108.914 181.162 108.232 180.901 107.586 180.611C106.947 180.32 106.381 179.983 105.888 179.598C105.401 179.206 105.017 178.753 104.734 178.237C104.458 177.722 104.32 177.123 104.32 176.441C104.32 175.781 104.465 175.182 104.755 174.645C105.046 174.101 105.452 173.636 105.975 173.252C106.497 172.86 107.114 172.559 107.825 172.348C108.544 172.138 109.331 172.032 110.188 172.032C111.356 172.032 112.376 172.243 113.246 172.664C114.117 173.085 114.792 173.662 115.271 174.395C115.758 175.128 116.001 175.966 116.001 176.909H112.757C112.757 176.445 112.659 176.038 112.463 175.69C112.274 175.334 111.984 175.055 111.592 174.852C111.207 174.649 110.721 174.547 110.133 174.547C109.567 174.547 109.095 174.634 108.718 174.808C108.341 174.975 108.058 175.204 107.869 175.494C107.68 175.777 107.586 176.096 107.586 176.452C107.586 176.721 107.651 176.964 107.782 177.181C107.92 177.399 108.123 177.602 108.391 177.791C108.66 177.98 108.99 178.158 109.382 178.324C109.774 178.491 110.227 178.655 110.743 178.814C111.606 179.076 112.365 179.37 113.018 179.696C113.678 180.023 114.23 180.389 114.673 180.796C115.115 181.202 115.449 181.663 115.674 182.178C115.899 182.693 116.012 183.278 116.012 183.931C116.012 184.62 115.877 185.237 115.609 185.781C115.34 186.326 114.952 186.787 114.444 187.164C113.936 187.541 113.33 187.828 112.626 188.024C111.922 188.22 111.135 188.318 110.264 188.318C109.48 188.318 108.707 188.216 107.945 188.013C107.183 187.803 106.49 187.487 105.866 187.066C105.249 186.645 104.755 186.108 104.385 185.455C104.015 184.802 103.83 184.029 103.83 183.136H107.107C107.107 183.63 107.183 184.047 107.335 184.388C107.488 184.729 107.702 185.005 107.978 185.215C108.261 185.426 108.595 185.578 108.979 185.673C109.371 185.767 109.799 185.814 110.264 185.814C110.83 185.814 111.294 185.734 111.657 185.575C112.027 185.415 112.299 185.194 112.474 184.91C112.655 184.627 112.746 184.308 112.746 183.953ZM129.694 178.705V181.253H121.421V178.705H129.694ZM122.39 172.25V188.1H119.124V172.25H122.39ZM132.024 172.25V188.1H128.769V172.25H132.024ZM139.23 172.25V188.1H135.975V172.25H139.23ZM156.08 172.25V188.1H152.815L146.446 177.475V188.1H143.18V172.25H146.446L152.825 182.886V172.25H156.08ZM172.376 179.816V186.097C172.129 186.395 171.748 186.718 171.233 187.066C170.718 187.407 170.053 187.701 169.241 187.948C168.428 188.194 167.444 188.318 166.291 188.318C165.267 188.318 164.335 188.151 163.493 187.817C162.651 187.476 161.925 186.979 161.316 186.326C160.713 185.673 160.249 184.874 159.922 183.931C159.596 182.98 159.432 181.895 159.432 180.676V179.685C159.432 178.466 159.588 177.381 159.9 176.43C160.22 175.48 160.673 174.678 161.261 174.024C161.849 173.371 162.549 172.874 163.362 172.533C164.175 172.192 165.079 172.021 166.073 172.021C167.452 172.021 168.584 172.246 169.469 172.696C170.355 173.139 171.03 173.756 171.494 174.547C171.966 175.331 172.256 176.231 172.365 177.247H169.197C169.117 176.71 168.965 176.242 168.74 175.842C168.515 175.443 168.192 175.131 167.771 174.906C167.357 174.681 166.82 174.569 166.16 174.569C165.616 174.569 165.129 174.681 164.701 174.906C164.28 175.124 163.925 175.447 163.634 175.875C163.344 176.303 163.123 176.833 162.97 177.464C162.818 178.096 162.742 178.829 162.742 179.663V180.676C162.742 181.503 162.822 182.236 162.981 182.875C163.141 183.506 163.377 184.04 163.689 184.475C164.008 184.903 164.4 185.226 164.864 185.444C165.329 185.662 165.87 185.77 166.487 185.77C167.002 185.77 167.43 185.727 167.771 185.64C168.119 185.553 168.399 185.448 168.609 185.324C168.827 185.194 168.994 185.07 169.11 184.954V182.145H166.127V179.816H172.376ZM28.6243 208.45H24.5856V205.903H28.6243C29.2484 205.903 29.7564 205.801 30.1483 205.598C30.5402 205.388 30.8269 205.097 31.0083 204.727C31.1898 204.357 31.2805 203.94 31.2805 203.475C31.2805 203.004 31.1898 202.565 31.0083 202.158C30.8269 201.752 30.5402 201.425 30.1483 201.178C29.7564 200.932 29.2484 200.808 28.6243 200.808H25.7177V214.1H22.4519V198.25H28.6243C29.8653 198.25 30.9285 198.475 31.8139 198.925C32.7066 199.368 33.3887 199.981 33.8605 200.765C34.3322 201.549 34.5681 202.445 34.5681 203.454C34.5681 204.477 34.3322 205.362 33.8605 206.11C33.3887 206.857 32.7066 207.434 31.8139 207.841C30.9285 208.247 29.8653 208.45 28.6243 208.45ZM50.7329 205.805V206.556C50.7329 207.761 50.5696 208.842 50.243 209.8C49.9165 210.758 49.4556 211.575 48.8605 212.249C48.2654 212.917 47.5542 213.429 46.7269 213.784C45.9068 214.14 44.996 214.318 43.9945 214.318C43.0002 214.318 42.0894 214.14 41.2621 213.784C40.442 213.429 39.7308 212.917 39.1284 212.249C38.5261 211.575 38.058 210.758 37.7241 209.8C37.3976 208.842 37.2343 207.761 37.2343 206.556V205.805C37.2343 204.593 37.3976 203.512 37.7241 202.561C38.0507 201.603 38.5116 200.787 39.1067 200.112C39.709 199.437 40.4202 198.921 41.2403 198.566C42.0677 198.21 42.9785 198.032 43.9727 198.032C44.9742 198.032 45.885 198.21 46.7051 198.566C47.5324 198.921 48.2437 199.437 48.8388 200.112C49.4411 200.787 49.9056 201.603 50.2322 202.561C50.566 203.512 50.7329 204.593 50.7329 205.805ZM47.4345 206.556V205.783C47.4345 204.941 47.3583 204.201 47.2059 203.562C47.0534 202.924 46.8285 202.387 46.5309 201.951C46.2334 201.516 45.8705 201.189 45.4423 200.972C45.0141 200.747 44.5243 200.634 43.9727 200.634C43.4211 200.634 42.9313 200.747 42.5031 200.972C42.0822 201.189 41.7229 201.516 41.4254 201.951C41.1351 202.387 40.9137 202.924 40.7613 203.562C40.6089 204.201 40.5327 204.941 40.5327 205.783V206.556C40.5327 207.391 40.6089 208.131 40.7613 208.777C40.9137 209.415 41.1387 209.956 41.4363 210.399C41.7338 210.834 42.0967 211.165 42.5249 211.389C42.953 211.614 43.4429 211.727 43.9945 211.727C44.546 211.727 45.0359 211.614 45.4641 211.389C45.8923 211.165 46.2515 210.834 46.5418 210.399C46.8321 209.956 47.0534 209.415 47.2059 208.777C47.3583 208.131 47.4345 207.391 47.4345 206.556ZM62.2277 209.953C62.2277 209.669 62.1841 209.415 62.097 209.191C62.0172 208.958 61.8648 208.748 61.6398 208.559C61.4149 208.363 61.0992 208.171 60.6927 207.982C60.2863 207.793 59.7602 207.598 59.1143 207.394C58.3958 207.162 57.7136 206.901 57.0677 206.611C56.4291 206.32 55.863 205.983 55.3695 205.598C54.8832 205.206 54.4986 204.753 54.2156 204.237C53.9398 203.722 53.8019 203.123 53.8019 202.441C53.8019 201.781 53.947 201.182 54.2373 200.645C54.5276 200.101 54.934 199.636 55.4566 199.252C55.9791 198.86 56.596 198.559 57.3072 198.348C58.0257 198.138 58.8131 198.032 59.6695 198.032C60.8379 198.032 61.8576 198.243 62.7284 198.664C63.5993 199.085 64.2742 199.662 64.7532 200.395C65.2395 201.128 65.4826 201.966 65.4826 202.909H62.2386C62.2386 202.445 62.1406 202.038 61.9446 201.69C61.7559 201.334 61.4657 201.055 61.0738 200.852C60.6891 200.649 60.2029 200.547 59.615 200.547C59.049 200.547 58.5772 200.634 58.1999 200.808C57.8225 200.975 57.5394 201.204 57.3507 201.494C57.1621 201.777 57.0677 202.096 57.0677 202.452C57.0677 202.721 57.133 202.964 57.2637 203.181C57.4015 203.399 57.6047 203.602 57.8733 203.791C58.1418 203.98 58.472 204.158 58.8639 204.324C59.2558 204.491 59.7094 204.655 60.2247 204.814C61.0883 205.076 61.8467 205.37 62.4998 205.696C63.1602 206.023 63.7118 206.389 64.1545 206.796C64.5972 207.202 64.931 207.663 65.156 208.178C65.381 208.693 65.4935 209.278 65.4935 209.931C65.4935 210.62 65.3592 211.237 65.0907 211.781C64.8222 212.326 64.4339 212.787 63.9259 213.164C63.4179 213.541 62.8119 213.828 62.1079 214.024C61.404 214.22 60.6165 214.318 59.7457 214.318C58.9619 214.318 58.189 214.216 57.4269 214.013C56.6649 213.803 55.9718 213.487 55.3477 213.066C54.7308 212.645 54.2373 212.108 53.8672 211.455C53.4971 210.802 53.312 210.029 53.312 209.136H56.5887C56.5887 209.63 56.6649 210.047 56.8173 210.388C56.9697 210.729 57.1838 211.005 57.4596 211.215C57.7426 211.426 58.0765 211.578 58.4611 211.673C58.853 211.767 59.2812 211.814 59.7457 211.814C60.3117 211.814 60.7762 211.734 61.1391 211.575C61.5092 211.415 61.7813 211.194 61.9555 210.91C62.137 210.627 62.2277 210.308 62.2277 209.953ZM76.8576 209.953C76.8576 209.669 76.8141 209.415 76.727 209.191C76.6471 208.958 76.4947 208.748 76.2698 208.559C76.0448 208.363 75.7291 208.171 75.3227 207.982C74.9163 207.793 74.3901 207.598 73.7442 207.394C73.0257 207.162 72.3435 206.901 71.6976 206.611C71.059 206.32 70.4929 205.983 69.9994 205.598C69.5132 205.206 69.1285 204.753 68.8455 204.237C68.5697 203.722 68.4318 203.123 68.4318 202.441C68.4318 201.781 68.577 201.182 68.8673 200.645C69.1576 200.101 69.564 199.636 70.0865 199.252C70.609 198.86 71.2259 198.559 71.9371 198.348C72.6556 198.138 73.443 198.032 74.2994 198.032C75.4678 198.032 76.4875 198.243 77.3584 198.664C78.2292 199.085 78.9042 199.662 79.3832 200.395C79.8694 201.128 80.1125 201.966 80.1125 202.909H76.8685C76.8685 202.445 76.7705 202.038 76.5746 201.69C76.3859 201.334 76.0956 201.055 75.7037 200.852C75.319 200.649 74.8328 200.547 74.245 200.547C73.6789 200.547 73.2072 200.634 72.8298 200.808C72.4524 200.975 72.1694 201.204 71.9807 201.494C71.792 201.777 71.6976 202.096 71.6976 202.452C71.6976 202.721 71.763 202.964 71.8936 203.181C72.0315 203.399 72.2347 203.602 72.5032 203.791C72.7717 203.98 73.1019 204.158 73.4938 204.324C73.8857 204.491 74.3393 204.655 74.8546 204.814C75.7182 205.076 76.4766 205.37 77.1298 205.696C77.7902 206.023 78.3417 206.389 78.7844 206.796C79.2271 207.202 79.561 207.663 79.7859 208.178C80.0109 208.693 80.1234 209.278 80.1234 209.931C80.1234 210.62 79.9891 211.237 79.7206 211.781C79.4521 212.326 79.0638 212.787 78.5558 213.164C78.0478 213.541 77.4418 213.828 76.7379 214.024C76.0339 214.22 75.2465 214.318 74.3756 214.318C73.5918 214.318 72.8189 214.216 72.0569 214.013C71.2949 213.803 70.6018 213.487 69.9776 213.066C69.3608 212.645 68.8673 212.108 68.4971 211.455C68.127 210.802 67.942 210.029 67.942 209.136H71.2187C71.2187 209.63 71.2949 210.047 71.4473 210.388C71.5997 210.729 71.8138 211.005 72.0895 211.215C72.3726 211.426 72.7064 211.578 73.091 211.673C73.4829 211.767 73.9111 211.814 74.3756 211.814C74.9417 211.814 75.4061 211.734 75.769 211.575C76.1391 211.415 76.4113 211.194 76.5855 210.91C76.7669 210.627 76.8576 210.308 76.8576 209.953ZM86.7086 198.25V214.1H83.4537V198.25H86.7086ZM96.8644 207.144H92.793L92.7712 204.901H96.1894C96.7918 204.901 97.2853 204.825 97.6699 204.673C98.0546 204.513 98.3412 204.285 98.5299 203.987C98.7259 203.682 98.8238 203.312 98.8238 202.877C98.8238 202.383 98.7295 201.984 98.5408 201.679C98.3594 201.374 98.0727 201.153 97.6808 201.015C97.2962 200.877 96.799 200.808 96.1894 200.808H93.9251V214.1H90.6593V198.25H96.1894C97.1111 198.25 97.9348 198.337 98.6605 198.511C99.3935 198.686 100.014 198.95 100.522 199.306C101.03 199.662 101.418 200.112 101.687 200.656C101.955 201.193 102.09 201.832 102.09 202.572C102.09 203.225 101.941 203.827 101.643 204.379C101.353 204.93 100.892 205.38 100.261 205.729C99.6367 206.077 98.8202 206.269 97.8114 206.306L96.8644 207.144ZM96.7228 214.1H91.9003L93.174 211.553H96.7228C97.2962 211.553 97.7643 211.462 98.1271 211.281C98.49 211.092 98.7585 210.838 98.9327 210.519C99.1069 210.199 99.194 209.833 99.194 209.419C99.194 208.955 99.1141 208.552 98.9545 208.211C98.8021 207.87 98.5553 207.608 98.2142 207.427C97.8731 207.238 97.4232 207.144 96.8644 207.144H93.7183L93.7401 204.901H97.659L98.4102 205.783C99.3754 205.769 100.152 205.939 100.74 206.295C101.335 206.643 101.767 207.097 102.035 207.656C102.311 208.214 102.449 208.813 102.449 209.452C102.449 210.468 102.228 211.324 101.785 212.021C101.342 212.71 100.693 213.229 99.8362 213.578C98.9871 213.926 97.9493 214.1 96.7228 214.1ZM109.263 198.25V214.1H106.008V198.25H109.263ZM123.403 211.553V214.1H115.423V211.553H123.403ZM116.479 198.25V214.1H113.213V198.25H116.479ZM129.64 198.25V214.1H126.385V198.25H129.64ZM140.35 198.25V214.1H137.096V198.25H140.35ZM145.227 198.25V200.808H132.295V198.25H145.227ZM151.453 198.25V214.1H148.198V198.25H151.453ZM166.04 211.553V214.1H157.603V211.553H166.04ZM158.67 198.25V214.1H155.404V198.25H158.67ZM164.94 204.705V207.187H157.603V204.705H164.94ZM166.029 198.25V200.808H157.603V198.25H166.029ZM177.088 209.953C177.088 209.669 177.045 209.415 176.958 209.191C176.878 208.958 176.725 208.748 176.5 208.559C176.275 208.363 175.96 208.171 175.553 207.982C175.147 207.793 174.621 207.598 173.975 207.394C173.256 207.162 172.574 206.901 171.928 206.611C171.29 206.32 170.723 205.983 170.23 205.598C169.744 205.206 169.359 204.753 169.076 204.237C168.8 203.722 168.662 203.123 168.662 202.441C168.662 201.781 168.808 201.182 169.098 200.645C169.388 200.101 169.795 199.636 170.317 199.252C170.84 198.86 171.456 198.559 172.168 198.348C172.886 198.138 173.674 198.032 174.53 198.032C175.698 198.032 176.718 198.243 177.589 198.664C178.46 199.085 179.135 199.662 179.614 200.395C180.1 201.128 180.343 201.966 180.343 202.909H177.099C177.099 202.445 177.001 202.038 176.805 201.69C176.616 201.334 176.326 201.055 175.934 200.852C175.55 200.649 175.063 200.547 174.476 200.547C173.909 200.547 173.438 200.634 173.06 200.808C172.683 200.975 172.4 201.204 172.211 201.494C172.023 201.777 171.928 202.096 171.928 202.452C171.928 202.721 171.994 202.964 172.124 203.181C172.262 203.399 172.465 203.602 172.734 203.791C173.002 203.98 173.332 204.158 173.724 204.324C174.116 204.491 174.57 204.655 175.085 204.814C175.949 205.076 176.707 205.37 177.36 205.696C178.021 206.023 178.572 206.389 179.015 206.796C179.458 207.202 179.792 207.663 180.017 208.178C180.241 208.693 180.354 209.278 180.354 209.931C180.354 210.62 180.22 211.237 179.951 211.781C179.683 212.326 179.294 212.787 178.786 213.164C178.278 213.541 177.672 213.828 176.968 214.024C176.264 214.22 175.477 214.318 174.606 214.318C173.822 214.318 173.049 214.216 172.287 214.013C171.525 213.803 170.832 213.487 170.208 213.066C169.591 212.645 169.098 212.108 168.728 211.455C168.358 210.802 168.173 210.029 168.173 209.136H171.449C171.449 209.63 171.525 210.047 171.678 210.388C171.83 210.729 172.044 211.005 172.32 211.215C172.603 211.426 172.937 211.578 173.322 211.673C173.714 211.767 174.142 211.814 174.606 211.814C175.172 211.814 175.637 211.734 176 211.575C176.37 211.415 176.642 211.194 176.816 210.91C176.997 210.627 177.088 210.308 177.088 209.953Z" fill="url(#paint8_radial_329_1465)" fill-opacity="0.2"/>
<path d="M36.5259 286.805L30.1882 284.256V279.159L36.5259 281.708V286.805Z" fill="#6A325B"/>
<path d="M30.1882 284.256L23.8506 286.805V281.708L30.1882 279.159V284.256Z" fill="#6A325B"/>
<path d="M30.1882 289.354L23.8506 286.805V281.708L30.1882 284.256V289.354Z" fill="url(#paint9_linear_329_1465)" fill-opacity="0.6"/>
<path d="M30.1882 289.354L36.5259 286.805V281.708L30.1882 284.256V289.354Z" fill="#B8C5FA" fill-opacity="0.75"/>
<path d="M36.5258 281.708L30.1882 279.159L23.8506 281.708L30.1882 284.256L36.5258 281.708Z" fill="url(#paint10_linear_329_1465)"/>
<path d="M188.958 308.566L181.208 305.449L173.458 308.566L181.208 311.682L188.958 308.566Z" fill="#35192E"/>
<path d="M188.958 308.565L181.208 305.448V299.215L188.958 302.332V308.565Z" fill="#6A325B"/>
<path d="M181.208 305.448L173.458 308.565V302.332L181.208 299.215V305.448Z" fill="#6A325B"/>
<path d="M181.208 311.682L173.458 308.565V302.332L181.208 305.448V311.682Z" fill="#1734AD" fill-opacity="0.6"/>
<path d="M181.208 311.682L188.958 308.565V302.332L181.208 305.448V311.682Z" fill="#1734AD" fill-opacity="0.75"/>
<path d="M188.958 302.332L181.208 299.215L173.458 302.332L181.208 305.448L188.958 302.332Z" fill="url(#paint11_linear_329_1465)"/>
<path d="M40.3671 32.1845C40.5515 32.5726 40.6437 32.9656 40.6437 33.3634C40.6437 33.7516 40.5466 34.1397 40.3525 34.5279C40.1585 34.9063 39.8431 35.2459 39.4065 35.5467C38.9698 35.8378 38.4119 35.9834 37.7326 35.9834H37.6453C37.5871 35.9931 37.5288 35.9979 37.4706 35.9979H31.6195C31.3575 35.9882 31.1343 35.896 30.9499 35.7214C30.7753 35.537 30.6831 35.3138 30.6734 35.0518V28.3856C30.6831 28.1236 30.7753 27.9053 30.9499 27.7306C31.1343 27.5462 31.3575 27.4492 31.6195 27.4395H36.6264C36.6847 27.4395 36.7429 27.4444 36.8011 27.4541H36.8884C37.5677 27.4735 38.1256 27.6287 38.5623 27.9198C38.9989 28.2109 39.3143 28.5457 39.5084 28.9241C39.7024 29.2929 39.7995 29.6664 39.7995 30.0449C39.7995 30.433 39.7073 30.8114 39.5229 31.1802C39.5132 31.1996 39.5035 31.2141 39.4938 31.2238C39.8916 31.5052 40.1827 31.8255 40.3671 32.1845ZM37.82 34.0475C38.0043 34.0572 38.1547 34.0233 38.2712 33.9457C38.3973 33.868 38.4895 33.7807 38.5477 33.6837C38.6059 33.5769 38.635 33.4702 38.635 33.3634C38.635 33.2955 38.6059 33.2033 38.5477 33.0869C38.4895 32.9608 38.3973 32.8589 38.2712 32.7812C38.1547 32.7036 38.0043 32.66 37.82 32.6502H36.8884H32.6383V33.6546C32.6383 33.9165 32.7742 34.0475 33.0459 34.0475H33.1623H37.82ZM37.4415 30.5689C37.558 30.5009 37.6453 30.4233 37.7035 30.336C37.7617 30.2389 37.7908 30.1419 37.7908 30.0449C37.7908 29.9478 37.7617 29.8557 37.7035 29.7683C37.6453 29.6713 37.5531 29.5888 37.427 29.5209C37.3105 29.4433 37.1601 29.3996 36.9758 29.3899H33.0459C32.7742 29.3899 32.6383 29.5209 32.6383 29.7829V30.6999H36.9758C37.1601 30.6902 37.3154 30.6465 37.4415 30.5689ZM43.4449 27.2066C43.7068 27.2163 43.93 27.3134 44.1144 27.4977C44.2988 27.6724 44.3958 27.8907 44.4055 28.1527V35.2847C44.3473 35.8669 44.0271 36.1823 43.4449 36.2308C43.1732 36.2308 42.9354 36.1435 42.7317 35.9688C42.5376 35.7845 42.4405 35.5564 42.4405 35.2847V28.1527C42.4503 27.881 42.5521 27.6578 42.7462 27.4832C42.9403 27.2988 43.1732 27.2066 43.4449 27.2066ZM49.5646 36.027C48.7107 35.9979 48.0655 35.799 47.6288 35.4303C47.1921 35.0518 46.8768 34.6297 46.6827 34.164C46.4886 33.6885 46.3916 33.2082 46.3916 32.723C46.3916 32.2184 46.4838 31.7333 46.6682 31.2675C46.8622 30.792 47.1776 30.3699 47.6142 30.0012C48.0606 29.6228 48.6234 29.4287 49.3026 29.419H54.0185C54.6977 29.4287 55.2557 29.6228 55.6923 30.0012C56.1387 30.3699 56.4541 30.792 56.6384 31.2675C56.8325 31.7333 56.9295 32.2184 56.9295 32.723C56.9295 33.2082 56.8325 33.6885 56.6384 34.164C56.4444 34.6297 56.129 35.0518 55.6923 35.4303C55.2557 35.799 54.6104 35.9979 53.7565 36.027H49.5646ZM49.2444 31.3694C49.0601 31.3694 48.8999 31.447 48.7641 31.6023C48.6283 31.7478 48.5264 31.9225 48.4584 32.1263C48.4002 32.3203 48.3711 32.5144 48.3711 32.7085C48.3711 32.9122 48.4002 33.116 48.4584 33.3198C48.5264 33.5139 48.6283 33.6885 48.7641 33.8438C48.8999 33.9893 49.0601 34.0669 49.2444 34.0767H54.0767C54.2611 34.0669 54.4212 33.9893 54.557 33.8438C54.6929 33.6885 54.7899 33.5139 54.8482 33.3198C54.9161 33.116 54.95 32.9122 54.95 32.7085C54.95 32.5144 54.9161 32.3203 54.8482 32.1263C54.7899 31.9225 54.6929 31.7478 54.557 31.6023C54.4212 31.447 54.2611 31.3694 54.0767 31.3694H49.2444ZM61.8558 36.027C61.0019 35.9979 60.3566 35.799 59.92 35.4303C59.4833 35.0518 59.1679 34.6297 58.9739 34.164C58.7798 33.6885 58.6828 33.2082 58.6828 32.723C58.6828 32.2184 58.775 31.7333 58.9593 31.2675C59.1534 30.792 59.4687 30.3699 59.9054 30.0012C60.3518 29.6228 60.9146 29.4287 61.5938 29.419H67.1248C67.3965 29.419 67.6245 29.516 67.8088 29.7101C68.0029 29.8945 68.1 30.1225 68.1 30.3942C68.1 30.6659 68.0029 30.8988 67.8088 31.0928C67.6245 31.2772 67.3965 31.3694 67.1248 31.3694H61.5356C61.3512 31.3694 61.1911 31.447 61.0553 31.6023C60.9194 31.7478 60.8175 31.9225 60.7496 32.1263C60.6914 32.3203 60.6623 32.5144 60.6623 32.7085C60.6623 32.9122 60.6914 33.116 60.7496 33.3198C60.8175 33.5139 60.9194 33.6885 61.0553 33.8438C61.1911 33.9893 61.3512 34.0669 61.5356 34.0767H67.1248C67.3965 34.0767 67.6245 34.1737 67.8088 34.3678C68.0029 34.5521 68.1 34.7802 68.1 35.0518C68.1 35.3235 68.0029 35.5516 67.8088 35.7359C67.6245 35.93 67.3965 36.027 67.1248 36.027H61.8558ZM70.9303 27.2066C71.1923 27.2163 71.4154 27.3134 71.5998 27.4977C71.7842 27.6724 71.8812 27.8907 71.8909 28.1527V35.2847C71.8327 35.8669 71.5125 36.1823 70.9303 36.2308C70.6586 36.2308 70.4208 36.1435 70.2171 35.9688C70.023 35.7845 69.926 35.5564 69.926 35.2847V28.1527C69.9357 27.881 70.0375 27.6578 70.2316 27.4832C70.4257 27.2988 70.6586 27.2066 70.9303 27.2066ZM72.7788 31.2675C73.0602 30.8114 73.5987 30.4767 74.3944 30.2632L78.1351 29.2589C78.3971 29.1813 78.6445 29.2055 78.8774 29.3317C79.12 29.4481 79.2801 29.6373 79.3577 29.8993C79.445 30.1516 79.4256 30.3991 79.2995 30.6416C79.183 30.8745 78.9938 31.0346 78.7318 31.122L74.7437 32.1554C74.4623 32.2621 74.3265 32.4465 74.3362 32.7085C74.3265 32.9705 74.4623 33.1548 74.7437 33.2616L78.7318 34.295C78.9938 34.3823 79.183 34.5473 79.2995 34.7899C79.4256 35.0227 79.445 35.2653 79.3577 35.5176C79.2801 35.7796 79.12 35.9688 78.8774 36.0853C78.6445 36.2114 78.3971 36.2357 78.1351 36.158L74.3944 35.1537C73.589 34.9306 73.0456 34.5909 72.7642 34.1349C72.4925 33.6788 72.3567 33.2033 72.3567 32.7085C72.3567 32.2136 72.4974 31.7333 72.7788 31.2675ZM98.3945 28.4147C98.3945 28.6864 98.2975 28.9144 98.1034 29.0988C97.919 29.2929 97.691 29.3899 97.4193 29.3899H91.5973C91.4129 29.3996 91.2576 29.4433 91.1315 29.5209C91.015 29.5888 90.9277 29.6713 90.8695 29.7683C90.8113 29.8557 90.7822 29.9478 90.7822 30.0449C90.7822 30.1419 90.8113 30.2389 90.8695 30.336C90.9277 30.4233 91.015 30.5058 91.1315 30.5834C91.2576 30.6513 91.4129 30.6902 91.5973 30.6999H95.7309C96.4102 30.7193 96.9681 30.8794 97.4048 31.1802C97.8511 31.4713 98.1665 31.8109 98.3508 32.199C98.5449 32.5775 98.6419 32.9656 98.6419 33.3634C98.6419 33.7516 98.5449 34.1397 98.3508 34.5279C98.1568 34.9063 97.8414 35.2459 97.4048 35.5467C96.9681 35.8378 96.4102 35.9834 95.7309 35.9834H95.6436C95.5854 35.9931 95.5271 35.9979 95.4689 35.9979H89.9671C89.6954 35.9979 89.4625 35.9057 89.2684 35.7214C89.0841 35.5273 88.9919 35.2944 88.9919 35.0227C88.9919 34.751 89.0889 34.523 89.283 34.3386C89.4673 34.1446 89.6954 34.0475 89.9671 34.0475H95.8182C96.0026 34.0572 96.153 34.0233 96.2695 33.9457C96.3956 33.868 96.4878 33.7807 96.546 33.6837C96.6042 33.5769 96.6333 33.4702 96.6333 33.3634C96.6333 33.2955 96.6042 33.2033 96.546 33.0869C96.4878 32.9608 96.3956 32.8589 96.2695 32.7812C96.153 32.7036 96.0026 32.66 95.8182 32.6502H91.6846C91.0053 32.6308 90.4425 32.4756 89.9962 32.1845C89.5595 31.8934 89.2442 31.5635 89.0501 31.1947C88.8657 30.8163 88.7736 30.433 88.7736 30.0449C88.7736 29.6664 88.8706 29.2929 89.0647 28.9241C89.2587 28.5457 89.5741 28.2109 90.0107 27.9198C90.4474 27.6287 91.0053 27.4735 91.6846 27.4541H91.7719C91.8301 27.4444 91.8884 27.4395 91.9466 27.4395H97.4193C97.691 27.4395 97.919 27.5365 98.1034 27.7306C98.2975 27.915 98.3945 28.143 98.3945 28.4147ZM103.583 36.027C102.729 35.9979 102.084 35.799 101.647 35.4303C101.21 35.0518 100.895 34.6297 100.701 34.164C100.507 33.6885 100.41 33.2082 100.41 32.723C100.41 32.2184 100.502 31.7333 100.686 31.2675C100.88 30.792 101.196 30.3699 101.632 30.0012C102.079 29.6228 102.642 29.4287 103.321 29.419H108.037C108.716 29.4287 109.274 29.6228 109.71 30.0012C110.157 30.3699 110.472 30.792 110.657 31.2675C110.851 31.7333 110.948 32.2184 110.948 32.723C110.948 33.2082 110.851 33.6885 110.657 34.164C110.462 34.6297 110.147 35.0518 109.71 35.4303C109.274 35.799 108.629 35.9979 107.775 36.027H103.583ZM103.263 31.3694C103.078 31.3694 102.918 31.447 102.782 31.6023C102.646 31.7478 102.544 31.9225 102.477 32.1263C102.418 32.3203 102.389 32.5144 102.389 32.7085C102.389 32.9122 102.418 33.116 102.477 33.3198C102.544 33.5139 102.646 33.6885 102.782 33.8438C102.918 33.9893 103.078 34.0669 103.263 34.0767H108.095C108.279 34.0669 108.439 33.9893 108.575 33.8438C108.711 33.6885 108.808 33.5139 108.866 33.3198C108.934 33.116 108.968 32.9122 108.968 32.7085C108.968 32.5144 108.934 32.3203 108.866 32.1263C108.808 31.9225 108.711 31.7478 108.575 31.6023C108.439 31.447 108.279 31.3694 108.095 31.3694H103.263ZM116.252 36.2017C115.99 36.192 115.767 36.0998 115.583 35.9252C115.398 35.7408 115.301 35.5176 115.292 35.2556V33.2907H113.618C113.346 33.2907 113.113 33.1985 112.919 33.0141C112.735 32.8201 112.643 32.5872 112.643 32.3155C112.643 32.0438 112.74 31.8158 112.934 31.6314C113.118 31.4373 113.346 31.3403 113.618 31.3403H115.292C115.321 30.7678 115.418 30.2147 115.583 29.681C115.777 29.0697 116.092 28.5554 116.529 28.1382C116.975 27.7112 117.538 27.4783 118.217 27.4395H122.264C122.526 27.4492 122.744 27.5462 122.919 27.7306C123.103 27.9053 123.2 28.1236 123.21 28.3856C123.21 28.6573 123.118 28.8902 122.933 29.0842C122.758 29.2783 122.535 29.3802 122.264 29.3899H118.712C118.343 29.4093 118.038 29.55 117.795 29.812C117.553 30.074 117.402 30.3699 117.344 30.6999C117.295 30.9133 117.266 31.1268 117.257 31.3403H122.205C122.477 31.3403 122.705 31.4373 122.889 31.6314C123.084 31.8158 123.181 32.0438 123.181 32.3155C123.181 32.5872 123.088 32.8201 122.904 33.0141C122.71 33.1985 122.477 33.2907 122.205 33.2907H117.257V35.2556C117.247 35.5273 117.145 35.7553 116.951 35.9397C116.757 36.1144 116.524 36.2017 116.252 36.2017ZM128.18 27.2066C128.451 27.2066 128.684 27.2988 128.878 27.4832C129.072 27.6578 129.174 27.881 129.184 28.1527V29.419H134.133C134.404 29.419 134.637 29.5112 134.831 29.6956C135.016 29.8896 135.108 30.1225 135.108 30.3942C135.108 30.6659 135.011 30.8988 134.817 31.0928C134.632 31.2772 134.404 31.3694 134.133 31.3694H129.184V31.6605C129.174 32.0583 129.198 32.4271 129.257 32.7667C129.325 33.0966 129.48 33.3926 129.722 33.6546C129.965 33.9165 130.271 34.0572 130.639 34.0767H134.191C134.463 34.0864 134.686 34.1882 134.86 34.3823C135.045 34.5764 135.137 34.8093 135.137 35.081C135.127 35.3429 135.03 35.5661 134.846 35.7505C134.671 35.9252 134.453 36.0173 134.191 36.027H130.145C129.465 35.9882 128.903 35.7602 128.456 35.3429C128.02 34.916 127.704 34.3969 127.51 33.7855C127.326 33.1742 127.229 32.5241 127.219 31.8352V31.3694H125.545C125.273 31.3694 125.045 31.2724 124.861 31.0783C124.667 30.8939 124.57 30.6659 124.57 30.3942C124.57 30.1225 124.662 29.8945 124.846 29.7101C125.041 29.516 125.273 29.419 125.545 29.419H127.219V28.1527C127.229 27.8907 127.326 27.6724 127.51 27.4977C127.694 27.3134 127.918 27.2163 128.18 27.2066ZM139.918 36.2163C139.588 36.2163 139.258 36.158 138.928 36.0416C138.608 35.9252 138.297 35.7553 137.996 35.5322C137.696 35.2993 137.434 34.9936 137.21 34.6152C136.987 34.2368 136.866 33.7855 136.847 33.2616V30.1613C136.847 29.8896 136.944 29.6664 137.138 29.4918C137.341 29.3074 137.579 29.2152 137.851 29.2152C138.433 29.2637 138.748 29.5791 138.797 30.1613V33.1451C138.807 33.378 138.855 33.5769 138.943 33.7419C139.03 33.8971 139.127 34.0233 139.234 34.1203C139.34 34.2076 139.447 34.2756 139.554 34.3241C139.67 34.3629 139.787 34.3823 139.903 34.3823C140.02 34.3823 140.136 34.3629 140.252 34.3241C140.369 34.2756 140.48 34.2076 140.587 34.1203C140.694 34.0233 140.791 33.8971 140.878 33.7419C140.966 33.5769 141.009 33.378 141.009 33.1451V30.1613C141.009 29.8896 141.106 29.6664 141.3 29.4918C141.504 29.3074 141.742 29.2152 142.014 29.2152C142.596 29.2637 142.916 29.5791 142.974 30.1613V33.1451C142.984 33.378 143.033 33.5721 143.12 33.7273C143.207 33.8923 143.304 34.0233 143.411 34.1203C143.518 34.2076 143.624 34.2756 143.731 34.3241C143.848 34.3629 143.964 34.3823 144.08 34.3823C144.197 34.3823 144.313 34.3629 144.43 34.3241C144.546 34.2756 144.658 34.2076 144.765 34.1203C144.871 34.0233 144.968 33.8971 145.056 33.7419C145.143 33.5769 145.187 33.378 145.187 33.1451V30.1613C145.187 29.8896 145.284 29.6664 145.478 29.4918C145.682 29.3074 145.919 29.2152 146.191 29.2152C146.773 29.2637 147.093 29.5791 147.152 30.1613V33.2616C147.152 33.7855 147.035 34.2368 146.802 34.6152C146.579 34.9936 146.317 35.2993 146.016 35.5322C145.725 35.7553 145.415 35.9252 145.085 36.0416C144.765 36.158 144.435 36.2163 144.095 36.2163C143.765 36.2163 143.435 36.158 143.105 36.0416C142.785 35.9252 142.475 35.7505 142.174 35.5176C142.116 35.4788 142.062 35.4351 142.014 35.3866C141.955 35.4351 141.902 35.4788 141.854 35.5176C141.553 35.7505 141.237 35.9252 140.907 36.0416C140.587 36.158 140.257 36.2163 139.918 36.2163ZM157.507 35.2556V31.7478C157.507 31.5052 157.381 31.3791 157.128 31.3694H152.034C151.85 31.3791 151.69 31.4616 151.554 31.6168C151.418 31.7624 151.316 31.937 151.248 32.1408C151.19 32.3349 151.161 32.5338 151.161 32.7376C151.161 32.9316 151.19 33.1306 151.248 33.3343C151.316 33.5284 151.418 33.7031 151.554 33.8583C151.69 34.0039 151.85 34.0767 152.034 34.0767H155.76C156.032 34.0767 156.26 34.1737 156.444 34.3678C156.638 34.5521 156.736 34.7802 156.736 35.0518C156.736 35.3235 156.638 35.5516 156.444 35.7359C156.26 35.93 156.032 36.027 155.76 36.027H152.092C151.413 36.0173 150.85 35.8281 150.404 35.4594C149.967 35.081 149.652 34.6589 149.458 34.1931C149.274 33.7176 149.181 33.2276 149.181 32.723C149.181 32.2379 149.278 31.7624 149.472 31.2966C149.667 30.8211 149.982 30.3991 150.419 30.0303C150.855 29.6519 151.501 29.4481 152.354 29.419H158.468C158.739 29.419 158.972 29.5112 159.166 29.6956C159.36 29.8702 159.462 30.0934 159.472 30.3651V35.2556C159.472 35.5273 159.37 35.7553 159.166 35.9397C158.972 36.1144 158.739 36.2017 158.468 36.2017C157.885 36.1532 157.565 35.8378 157.507 35.2556ZM161.953 31.253C162.137 30.7872 162.448 30.3699 162.884 30.0012C163.331 29.6228 163.894 29.4287 164.573 29.419H170.046C170.317 29.419 170.545 29.516 170.73 29.7101C170.924 29.8945 171.021 30.1225 171.021 30.3942C171.021 30.6659 170.924 30.8988 170.73 31.0928C170.545 31.2772 170.317 31.3694 170.046 31.3694H164.515C164.33 31.3694 164.17 31.447 164.034 31.6023C163.898 31.7478 163.792 31.9225 163.714 32.1263C163.646 32.33 163.612 32.5241 163.612 32.7085V35.2556C163.554 35.8378 163.234 36.1532 162.652 36.2017C162.38 36.2017 162.142 36.1144 161.938 35.9397C161.744 35.7553 161.647 35.5273 161.647 35.2556V32.723H161.662C161.662 32.2184 161.759 31.7284 161.953 31.253ZM175.743 36.027C174.889 35.9979 174.244 35.799 173.807 35.4303C173.371 35.0518 173.055 34.6297 172.861 34.164C172.667 33.6885 172.57 33.2082 172.57 32.723C172.57 32.2184 172.662 31.7333 172.847 31.2675C173.041 30.792 173.356 30.3699 173.793 30.0012C174.239 29.6228 174.802 29.4287 175.481 29.419H181.012C181.284 29.419 181.512 29.5112 181.696 29.6956C181.89 29.8702 181.987 30.0837 181.987 30.336C181.987 30.598 181.89 30.8211 181.696 31.0055C181.512 31.1802 181.284 31.2675 181.012 31.2675H175.569C175.355 31.2675 175.166 31.3403 175.001 31.4858C174.846 31.6314 174.729 31.8206 174.652 32.0535C174.584 32.2864 174.55 32.5144 174.55 32.7376C174.55 32.9802 174.584 33.2179 174.652 33.4508C174.729 33.6837 174.846 33.8729 175.001 34.0184C175.166 34.1543 175.355 34.2271 175.569 34.2368H181.012C181.284 34.2368 181.512 34.3241 181.696 34.4988C181.89 34.6734 181.987 34.882 181.987 35.1246C181.987 35.3769 181.89 35.5904 181.696 35.765C181.512 35.9397 181.284 36.027 181.012 36.027H175.743ZM181.813 32.6939C181.813 32.8783 181.73 33.0384 181.565 33.1742C181.42 33.3004 181.235 33.3634 181.012 33.3634H176.253C176.029 33.3634 175.84 33.3004 175.685 33.1742C175.53 33.0384 175.452 32.8783 175.452 32.6939C175.452 32.5193 175.53 32.364 175.685 32.2281C175.84 32.102 176.029 32.0389 176.253 32.0389H181.012C181.235 32.0389 181.425 32.1069 181.58 32.2427C181.735 32.3688 181.813 32.5193 181.813 32.6939Z" fill="#FFFBFB"/>
<g filter="url(#filter1_ddd_329_1465)">
<rect x="30.3552" y="335.533" width="143.103" height="23.6729" rx="10.8411" fill="#F28FFF"/>
<path d="M81.6151 349.079V349.869H78.7129V349.079H81.6151ZM78.9908 344.089V349.869H77.9943V344.089H78.9908ZM86.4182 349.079V349.869H83.3493V349.079H86.4182ZM83.6311 344.089V349.869H82.6346V344.089H83.6311ZM86.0172 346.502V347.281H83.3493V346.502H86.0172ZM86.3983 344.089V344.883H83.3493V344.089H86.3983ZM89.9389 344.089V349.869H88.9504V344.089H89.9389ZM91.7533 344.089V344.883H87.1519V344.089H91.7533ZM93.5788 343.771V344.331C93.5788 344.498 93.5483 344.671 93.4874 344.851C93.4292 345.028 93.3472 345.199 93.2413 345.363C93.1354 345.524 93.0137 345.665 92.876 345.784L92.3957 345.482C92.5042 345.318 92.5915 345.145 92.6577 344.962C92.7265 344.777 92.7609 344.569 92.7609 344.339V343.771H93.5788ZM97.8102 348.38C97.8102 348.261 97.7916 348.155 97.7546 348.063C97.7202 347.97 97.658 347.885 97.568 347.809C97.478 347.732 97.3509 347.658 97.1868 347.586C97.0254 347.512 96.8189 347.437 96.5675 347.36C96.2922 347.275 96.0381 347.181 95.8052 347.078C95.575 346.972 95.3738 346.851 95.2018 346.713C95.0297 346.573 94.8961 346.412 94.8008 346.232C94.7055 346.05 94.6579 345.839 94.6579 345.601C94.6579 345.366 94.7068 345.151 94.8048 344.958C94.9053 344.765 95.0469 344.598 95.2296 344.458C95.4148 344.315 95.6332 344.205 95.8846 344.128C96.1361 344.049 96.414 344.009 96.7184 344.009C97.1471 344.009 97.5164 344.089 97.826 344.247C98.1383 344.406 98.3779 344.619 98.5446 344.887C98.714 345.154 98.7987 345.449 98.7987 345.772H97.8102C97.8102 345.581 97.7691 345.413 97.6871 345.268C97.6077 345.12 97.4859 345.003 97.3218 344.918C97.1604 344.834 96.9552 344.791 96.7065 344.791C96.4709 344.791 96.275 344.827 96.1189 344.899C95.9627 344.97 95.8463 345.067 95.7695 345.188C95.6927 345.31 95.6544 345.448 95.6544 345.601C95.6544 345.71 95.6795 345.809 95.7298 345.899C95.7801 345.986 95.8568 346.068 95.9601 346.145C96.0633 346.219 96.193 346.289 96.3491 346.356C96.5053 346.422 96.6892 346.485 96.901 346.546C97.2212 346.641 97.5005 346.747 97.7387 346.864C97.9769 346.978 98.1754 347.107 98.3342 347.253C98.493 347.398 98.6121 347.564 98.6915 347.749C98.7709 347.932 98.8106 348.139 98.8106 348.372C98.8106 348.616 98.7617 348.836 98.6637 349.031C98.5658 349.225 98.4255 349.39 98.2429 349.528C98.0629 349.663 97.8459 349.767 97.5918 349.841C97.3404 349.913 97.0598 349.949 96.7501 349.949C96.4722 349.949 96.1983 349.911 95.9283 349.837C95.661 349.763 95.4175 349.651 95.1978 349.5C94.9781 349.346 94.8034 349.156 94.6737 348.928C94.5441 348.698 94.4792 348.429 94.4792 348.122H95.4757C95.4757 348.31 95.5075 348.47 95.571 348.603C95.6372 348.735 95.7285 348.844 95.8449 348.928C95.9614 349.01 96.0964 349.071 96.2499 349.111C96.406 349.151 96.5728 349.17 96.7501 349.17C96.983 349.17 97.1776 349.137 97.3337 349.071C97.4925 349.005 97.6116 348.912 97.691 348.793C97.7705 348.674 97.8102 348.536 97.8102 348.38ZM104.383 347.257H102.91L102.902 346.53H104.189C104.406 346.53 104.59 346.498 104.74 346.435C104.894 346.369 105.01 346.275 105.09 346.153C105.169 346.029 105.209 345.879 105.209 345.704C105.209 345.511 105.172 345.354 105.098 345.232C105.024 345.11 104.91 345.022 104.756 344.966C104.605 344.91 104.412 344.883 104.177 344.883H103.212V349.869H102.215V344.089H104.177C104.494 344.089 104.778 344.119 105.026 344.18C105.278 344.241 105.491 344.336 105.666 344.466C105.843 344.593 105.977 344.754 106.066 344.95C106.159 345.146 106.205 345.379 106.205 345.649C106.205 345.887 106.149 346.105 106.035 346.304C105.921 346.5 105.753 346.66 105.531 346.784C105.308 346.909 105.032 346.983 104.701 347.007L104.383 347.257ZM104.339 349.869H102.597L103.045 349.079H104.339C104.564 349.079 104.752 349.042 104.903 348.968C105.054 348.891 105.167 348.787 105.241 348.654C105.317 348.519 105.356 348.362 105.356 348.182C105.356 347.994 105.323 347.831 105.257 347.694C105.19 347.553 105.086 347.446 104.943 347.372C104.8 347.295 104.613 347.257 104.383 347.257H103.264L103.272 346.53H104.729L104.955 346.804C105.272 346.815 105.533 346.885 105.737 347.015C105.943 347.144 106.097 347.312 106.198 347.519C106.298 347.725 106.348 347.948 106.348 348.186C106.348 348.554 106.268 348.862 106.106 349.111C105.947 349.36 105.718 349.549 105.419 349.679C105.12 349.806 104.76 349.869 104.339 349.869ZM111.386 349.079V349.869H108.317V349.079H111.386ZM108.599 344.089V349.869H107.602V344.089H108.599ZM110.985 346.502V347.281H108.317V346.502H110.985ZM111.366 344.089V344.883H108.317V344.089H111.366ZM116.888 346.915V349.123C116.805 349.231 116.677 349.35 116.502 349.48C116.33 349.607 116.101 349.717 115.816 349.81C115.53 349.902 115.174 349.949 114.748 349.949C114.385 349.949 114.053 349.888 113.751 349.766C113.449 349.642 113.189 349.46 112.969 349.222C112.752 348.984 112.584 348.694 112.465 348.353C112.346 348.008 112.286 347.617 112.286 347.177V346.776C112.286 346.34 112.34 345.951 112.449 345.609C112.56 345.265 112.719 344.974 112.925 344.736C113.132 344.498 113.381 344.318 113.672 344.196C113.966 344.071 114.298 344.009 114.668 344.009C115.142 344.009 115.534 344.089 115.843 344.247C116.156 344.404 116.397 344.621 116.566 344.899C116.735 345.176 116.843 345.494 116.888 345.851H115.911C115.879 345.65 115.817 345.47 115.724 345.311C115.634 345.153 115.505 345.028 115.335 344.938C115.168 344.846 114.951 344.799 114.684 344.799C114.454 344.799 114.251 344.843 114.077 344.93C113.902 345.018 113.756 345.146 113.64 345.315C113.526 345.485 113.44 345.691 113.382 345.935C113.324 346.178 113.295 346.456 113.295 346.768V347.177C113.295 347.495 113.328 347.777 113.394 348.023C113.463 348.269 113.561 348.477 113.688 348.646C113.817 348.816 113.975 348.944 114.16 349.031C114.345 349.116 114.554 349.158 114.787 349.158C115.015 349.158 115.202 349.14 115.347 349.103C115.493 349.063 115.608 349.017 115.693 348.964C115.78 348.908 115.847 348.855 115.895 348.805V347.658H114.692V346.915H116.888ZM119.305 344.089V349.869H118.308V344.089H119.305ZM125.378 344.089V349.869H124.382L121.789 345.728V349.869H120.793V344.089H121.789L124.39 348.237V344.089H125.378Z" fill="white"/>
</g>
<path d="M27.4426 131.1L20.7681 128.416L14.0935 131.1L20.7681 133.784L27.4426 131.1Z" fill="#35192E"/>
<path d="M27.4426 131.1L20.7681 128.416V123.047L27.4426 125.731V131.1Z" fill="#6A325B"/>
<path d="M20.7681 128.416L14.0935 131.1V125.731L20.7681 123.047V128.416Z" fill="#6A325B"/>
<path d="M20.7681 133.785L14.0935 131.1V125.731L20.7681 128.416V133.785Z" fill="#1734AD" fill-opacity="0.6"/>
<path d="M20.7681 133.785L27.4426 131.1V125.731L20.7681 128.416V133.785Z" fill="#1734AD" fill-opacity="0.75"/>
<path d="M27.4426 125.731L20.7681 123.047L14.0935 125.731L20.7681 128.416L27.4426 125.731Z" fill="url(#paint12_linear_329_1465)"/>
<path d="M113.109 99.3772L100.461 93.0532L87.813 99.3772L100.461 105.701L113.109 99.3772Z" fill="#35192E"/>
<path d="M113.109 99.377L100.461 93.053V86.729L113.109 93.053V99.377Z" fill="#6A325B"/>
<path d="M100.461 93.053L87.813 99.377V93.053L100.461 86.729V93.053Z" fill="#6A325B"/>
<path d="M100.461 105.701L87.813 99.3772V93.0532L100.461 99.3772V105.701Z" fill="#533DF8"/>
<path d="M100.461 105.701L113.109 99.3772V93.0532L100.461 99.3772V105.701Z" fill="#1B40DF"/>
<path d="M113.109 93.053L100.461 86.729L87.813 93.053L100.461 99.377L113.109 93.053Z" fill="url(#paint13_linear_329_1465)"/>
</g>
</g>
<defs>
<filter id="filter0_f_329_1465" x="40.0312" y="144.22" width="121.084" height="139.285" filterUnits="userSpaceOnUse" color-interpolation-filters="sRGB">
<feFlood flood-opacity="0" result="BackgroundImageFix"/>
<feBlend mode="normal" in="SourceGraphic" in2="BackgroundImageFix" result="shape"/>
<feGaussianBlur stdDeviation="4.65628" result="effect1_foregroundBlur_329_1465"/>
</filter>
<filter id="filter1_ddd_329_1465" x="27.6449" y="333.364" width="148.523" height="29.0934" filterUnits="userSpaceOnUse" color-interpolation-filters="sRGB">
<feFlood flood-opacity="0" result="BackgroundImageFix"/>
<feColorMatrix in="SourceAlpha" type="matrix" values="0 0 0 0 0 0 0 0 0 0 0 0 0 0 0 0 0 0 127 0" result="hardAlpha"/>
<feMorphology radius="1.08411" operator="erode" in="SourceAlpha" result="effect1_dropShadow_329_1465"/>
<feOffset dy="1.62617"/>
<feGaussianBlur stdDeviation="0.271028"/>
<feComposite in2="hardAlpha" operator="out"/>
<feColorMatrix type="matrix" values="0 0 0 0 0 0 0 0 0 0 0 0 0 0 0 0 0 0 0.2 0"/>
<feBlend mode="normal" in2="BackgroundImageFix" result="effect1_dropShadow_329_1465"/>
<feColorMatrix in="SourceAlpha" type="matrix" values="0 0 0 0 0 0 0 0 0 0 0 0 0 0 0 0 0 0 127 0" result="hardAlpha"/>
<feOffset dy="1.08411"/>
<feGaussianBlur stdDeviation="0.542056"/>
<feComposite in2="hardAlpha" operator="out"/>
<feColorMatrix type="matrix" values="0 0 0 0 0 0 0 0 0 0 0 0 0 0 0 0 0 0 0.14 0"/>
<feBlend mode="normal" in2="effect1_dropShadow_329_1465" result="effect2_dropShadow_329_1465"/>
<feColorMatrix in="SourceAlpha" type="matrix" values="0 0 0 0 0 0 0 0 0 0 0 0 0 0 0 0 0 0 127 0" result="hardAlpha"/>
<feOffset dy="0.542056"/>
<feGaussianBlur stdDeviation="1.35514"/>
<feComposite in2="hardAlpha" operator="out"/>
<feColorMatrix type="matrix" values="0 0 0 0 0 0 0 0 0 0 0 0 0 0 0 0 0 0 0.12 0"/>
<feBlend mode="normal" in2="effect2_dropShadow_329_1465" result="effect3_dropShadow_329_1465"/>
<feBlend mode="normal" in="SourceGraphic" in2="effect3_dropShadow_329_1465" result="shape"/>
</filter>
<radialGradient id="paint0_radial_329_1465" cx="0" cy="0" r="1" gradientUnits="userSpaceOnUse" gradientTransform="translate(101.636 198.961) rotate(71.6577) scale(125.99 225.377)">
<stop/>
<stop offset="1" stop-color="#4F4A4B" stop-opacity="0.53"/>
</radialGradient>
<radialGradient id="paint1_radial_329_1465" cx="0" cy="0" r="1" gradientUnits="userSpaceOnUse" gradientTransform="translate(101.636 198.961) rotate(71.6577) scale(125.99 225.377)">
<stop/>
<stop offset="1" stop-color="#4F4A4B" stop-opacity="0.53"/>
</radialGradient>
<linearGradient id="paint2_linear_329_1465" x1="151.785" y1="213.89" x2="49.3612" y2="213.832" gradientUnits="userSpaceOnUse">
<stop stop-color="#533DF8"/>
<stop offset="1" stop-color="#D963EC"/>
</linearGradient>
<linearGradient id="paint3_linear_329_1465" x1="102.109" y1="205.423" x2="125.994" y2="205.436" gradientUnits="userSpaceOnUse">
<stop offset="0.25" stop-color="#BCBEC0" stop-opacity="0.1"/>
<stop offset="1" stop-color="white"/>
</linearGradient>
<linearGradient id="paint4_linear_329_1465" x1="75.7222" y1="205.329" x2="99.7464" y2="205.343" gradientUnits="userSpaceOnUse">
<stop stop-color="white" stop-opacity="0"/>
<stop offset="1" stop-color="#BCBEC0"/>
</linearGradient>
<linearGradient id="paint5_linear_329_1465" x1="101.228" y1="252.436" x2="100.534" y2="203.639" gradientUnits="userSpaceOnUse">
<stop stop-color="white" stop-opacity="0"/>
<stop offset="0.74" stop-color="#BCBEC0"/>
</linearGradient>
<linearGradient id="paint6_linear_329_1465" x1="184.758" y1="159.203" x2="184.828" y2="173.616" gradientUnits="userSpaceOnUse">
<stop stop-color="#4C5FAF"/>
<stop offset="0.927083" stop-color="#ADBDFF"/>
</linearGradient>
<linearGradient id="paint7_linear_329_1465" x1="187.926" y1="156.654" x2="187.926" y2="161.752" gradientUnits="userSpaceOnUse">
<stop stop-color="#F8F8FE"/>
<stop offset="1" stop-color="#97BEFA"/>
</linearGradient>
<radialGradient id="paint8_radial_329_1465" cx="0" cy="0" r="1" gradientUnits="userSpaceOnUse" gradientTransform="translate(89.3148 190.547) scale(61.8239 75.667)">
<stop/>
<stop offset="1" stop-opacity="0.1"/>
</radialGradient>
<linearGradient id="paint9_linear_329_1465" x1="27.0194" y1="281.708" x2="27.0895" y2="296.12" gradientUnits="userSpaceOnUse">
<stop stop-color="#4C5FAF"/>
<stop offset="0.927083" stop-color="#ADBDFF"/>
</linearGradient>
<linearGradient id="paint10_linear_329_1465" x1="30.1882" y1="279.159" x2="30.1882" y2="284.256" gradientUnits="userSpaceOnUse">
<stop stop-color="#F8F8FE"/>
<stop offset="1" stop-color="#97BEFA"/>
</linearGradient>
<linearGradient id="paint11_linear_329_1465" x1="181.208" y1="299.215" x2="181.208" y2="305.448" gradientUnits="userSpaceOnUse">
<stop stop-color="#2E21C2"/>
<stop offset="1" stop-color="#9747FF"/>
</linearGradient>
<linearGradient id="paint12_linear_329_1465" x1="20.7681" y1="123.047" x2="20.7681" y2="128.416" gradientUnits="userSpaceOnUse">
<stop stop-color="#2E21C2"/>
<stop offset="1" stop-color="#9747FF"/>
</linearGradient>
<linearGradient id="paint13_linear_329_1465" x1="100.367" y1="88.8213" x2="100.367" y2="103.468" gradientUnits="userSpaceOnUse">
<stop stop-color="#2E21C2"/>
<stop offset="1" stop-color="#D963EC"/>
</linearGradient>
<clipPath id="clip0_329_1465">
<rect width="203.271" height="440.15" rx="21.6822" fill="white"/>
</clipPath>
<clipPath id="clip1_329_1465">
<rect width="203.271" height="437.981" fill="white"/>
</clipPath>
</defs>
</svg>
