<svg width="1441" height="1024" viewBox="0 0 1441 1024" fill="none" xmlns="http://www.w3.org/2000/svg">
<path d="M0 0H721V149V341H0V0Z" fill="#FE7075"/>
<path d="M1440 1024H721L722 876.311L721 684L1440 684L1440 1024Z" fill="#FFE597"/>
<path d="M0 339H721V489.748V684H0V339Z" fill="#FFE597"/>
<path d="M1440 684L721 684L721 535L721 339L1440 339L1440 684Z" fill="#FE7075"/>
<path d="M0 684H721V832.563V1024H0V684Z" fill="#919FF8"/>
<path d="M1440 339L721 339L721 193.126L721 0L1440 0L1440 339Z" fill="#919FF8"/>
<path d="M144.186 0H0V339H388L144.186 0Z" fill="#FE555D"/>
<path d="M1064 1024L1440 1024L1440 684L1295 684L1064 1024Z" fill="#FFCF51"/>
<path d="M0 338.5V684H143L385.5 338.5H0Z" fill="#FFCF51"/>
<path d="M1440 684L1440 339L1055 339L1295 684L1440 684Z" fill="#FE555D"/>
<path d="M142.683 684L390 1024H0V684H142.683Z" fill="#5B71EA"/>
<path d="M1055 339L1296 0L1440 0L1440 339L1055 339Z" fill="#5B71EA"/>
</svg>
