<svg width="485" height="932" viewBox="0 0 485 932" fill="none" xmlns="http://www.w3.org/2000/svg">
<g filter="url(#filter0_d_44_84)">
<g filter="url(#filter1_i_44_84)">
<rect x="32" y="30" width="422" height="872" rx="33.6075" fill="#E6E6E6"/>
</g>
<rect x="32.271" y="30.271" width="421.458" height="871.458" rx="33.3364" stroke="url(#paint0_linear_44_84)" stroke-width="0.542056"/>
<rect x="34" y="32" width="418" height="868" rx="31.4393" fill="black"/>
<g filter="url(#filter2_i_44_84)">
<path d="M30 104.867C30 104.564 30 104.412 30.0591 104.296C30.111 104.194 30.194 104.111 30.296 104.059C30.4119 104 30.5637 104 30.8673 104H32V121H30.8673C30.5637 121 30.4119 121 30.296 120.941C30.194 120.889 30.111 120.806 30.0591 120.704C30 120.588 30 120.436 30 120.133V104.867Z" fill="#CCCCCC"/>
</g>
<g filter="url(#filter3_i_44_84)">
<path d="M30 138.867C30 138.564 30 138.412 30.0591 138.296C30.111 138.194 30.194 138.111 30.296 138.059C30.4119 138 30.5637 138 30.8673 138H32V172H30.8673C30.5637 172 30.4119 172 30.296 171.941C30.194 171.889 30.111 171.806 30.0591 171.704C30 171.588 30 171.436 30 171.133V138.867Z" fill="#CCCCCC"/>
</g>
<g filter="url(#filter4_i_44_84)">
<path d="M30 182.867C30 182.564 30 182.412 30.0591 182.296C30.111 182.194 30.194 182.111 30.296 182.059C30.4119 182 30.5637 182 30.8673 182H32V216H30.8673C30.5637 216 30.4119 216 30.296 215.941C30.194 215.889 30.111 215.806 30.0591 215.704C30 215.588 30 215.436 30 215.133V182.867Z" fill="#CCCCCC"/>
</g>
<g filter="url(#filter5_i_44_84)">
<path d="M454 150H454.133C454.436 150 454.588 150 454.704 150.059C454.806 150.111 454.889 150.194 454.941 150.296C455 150.412 455 150.564 455 150.867V204.133C455 204.436 455 204.588 454.941 204.704C454.889 204.806 454.806 204.889 454.704 204.941C454.588 205 454.436 205 454.133 205H454V150Z" fill="#CCCCCC"/>
</g>
</g>
<defs>
<filter id="filter0_d_44_84" x="0" y="0" width="485" height="932" filterUnits="userSpaceOnUse" color-interpolation-filters="sRGB">
<feFlood flood-opacity="0" result="BackgroundImageFix"/>
<feColorMatrix in="SourceAlpha" type="matrix" values="0 0 0 0 0 0 0 0 0 0 0 0 0 0 0 0 0 0 127 0" result="hardAlpha"/>
<feOffset/>
<feGaussianBlur stdDeviation="15"/>
<feComposite in2="hardAlpha" operator="out"/>
<feColorMatrix type="matrix" values="0 0 0 0 0 0 0 0 0 0 0 0 0 0 0 0 0 0 1 0"/>
<feBlend mode="normal" in2="BackgroundImageFix" result="effect1_dropShadow_44_84"/>
<feBlend mode="normal" in="SourceGraphic" in2="effect1_dropShadow_44_84" result="shape"/>
</filter>
<filter id="filter1_i_44_84" x="32" y="30" width="422" height="872" filterUnits="userSpaceOnUse" color-interpolation-filters="sRGB">
<feFlood flood-opacity="0" result="BackgroundImageFix"/>
<feBlend mode="normal" in="SourceGraphic" in2="BackgroundImageFix" result="shape"/>
<feColorMatrix in="SourceAlpha" type="matrix" values="0 0 0 0 0 0 0 0 0 0 0 0 0 0 0 0 0 0 127 0" result="hardAlpha"/>
<feOffset/>
<feGaussianBlur stdDeviation="2.16822"/>
<feComposite in2="hardAlpha" operator="arithmetic" k2="-1" k3="1"/>
<feColorMatrix type="matrix" values="0 0 0 0 0 0 0 0 0 0 0 0 0 0 0 0 0 0 0.3 0"/>
<feBlend mode="normal" in2="shape" result="effect1_innerShadow_44_84"/>
</filter>
<filter id="filter2_i_44_84" x="30" y="104" width="2.54206" height="17" filterUnits="userSpaceOnUse" color-interpolation-filters="sRGB">
<feFlood flood-opacity="0" result="BackgroundImageFix"/>
<feBlend mode="normal" in="SourceGraphic" in2="BackgroundImageFix" result="shape"/>
<feColorMatrix in="SourceAlpha" type="matrix" values="0 0 0 0 0 0 0 0 0 0 0 0 0 0 0 0 0 0 127 0" result="hardAlpha"/>
<feOffset dx="0.542056"/>
<feGaussianBlur stdDeviation="0.542056"/>
<feComposite in2="hardAlpha" operator="arithmetic" k2="-1" k3="1"/>
<feColorMatrix type="matrix" values="0 0 0 0 1 0 0 0 0 1 0 0 0 0 1 0 0 0 1 0"/>
<feBlend mode="normal" in2="shape" result="effect1_innerShadow_44_84"/>
</filter>
<filter id="filter3_i_44_84" x="30" y="138" width="2.54206" height="34" filterUnits="userSpaceOnUse" color-interpolation-filters="sRGB">
<feFlood flood-opacity="0" result="BackgroundImageFix"/>
<feBlend mode="normal" in="SourceGraphic" in2="BackgroundImageFix" result="shape"/>
<feColorMatrix in="SourceAlpha" type="matrix" values="0 0 0 0 0 0 0 0 0 0 0 0 0 0 0 0 0 0 127 0" result="hardAlpha"/>
<feOffset dx="0.542056"/>
<feGaussianBlur stdDeviation="0.542056"/>
<feComposite in2="hardAlpha" operator="arithmetic" k2="-1" k3="1"/>
<feColorMatrix type="matrix" values="0 0 0 0 1 0 0 0 0 1 0 0 0 0 1 0 0 0 1 0"/>
<feBlend mode="normal" in2="shape" result="effect1_innerShadow_44_84"/>
</filter>
<filter id="filter4_i_44_84" x="30" y="182" width="2.54206" height="34" filterUnits="userSpaceOnUse" color-interpolation-filters="sRGB">
<feFlood flood-opacity="0" result="BackgroundImageFix"/>
<feBlend mode="normal" in="SourceGraphic" in2="BackgroundImageFix" result="shape"/>
<feColorMatrix in="SourceAlpha" type="matrix" values="0 0 0 0 0 0 0 0 0 0 0 0 0 0 0 0 0 0 127 0" result="hardAlpha"/>
<feOffset dx="0.542056"/>
<feGaussianBlur stdDeviation="0.542056"/>
<feComposite in2="hardAlpha" operator="arithmetic" k2="-1" k3="1"/>
<feColorMatrix type="matrix" values="0 0 0 0 1 0 0 0 0 1 0 0 0 0 1 0 0 0 1 0"/>
<feBlend mode="normal" in2="shape" result="effect1_innerShadow_44_84"/>
</filter>
<filter id="filter5_i_44_84" x="453.458" y="150" width="1.54206" height="55" filterUnits="userSpaceOnUse" color-interpolation-filters="sRGB">
<feFlood flood-opacity="0" result="BackgroundImageFix"/>
<feBlend mode="normal" in="SourceGraphic" in2="BackgroundImageFix" result="shape"/>
<feColorMatrix in="SourceAlpha" type="matrix" values="0 0 0 0 0 0 0 0 0 0 0 0 0 0 0 0 0 0 127 0" result="hardAlpha"/>
<feOffset dx="-0.542056"/>
<feGaussianBlur stdDeviation="0.542056"/>
<feComposite in2="hardAlpha" operator="arithmetic" k2="-1" k3="1"/>
<feColorMatrix type="matrix" values="0 0 0 0 1 0 0 0 0 1 0 0 0 0 1 0 0 0 1 0"/>
<feBlend mode="normal" in2="shape" result="effect1_innerShadow_44_84"/>
</filter>
<linearGradient id="paint0_linear_44_84" x1="243" y1="30" x2="243" y2="902" gradientUnits="userSpaceOnUse">
<stop stop-color="white" stop-opacity="0.6"/>
<stop offset="1" stop-color="white" stop-opacity="0.3"/>
</linearGradient>
</defs>
</svg>
