<svg width="378" height="378" viewBox="0 0 378 378" fill="none" xmlns="http://www.w3.org/2000/svg">
<path d="M267.75 141.75V110.25C267.75 66.15 233.1 31.5 189 31.5C144.9 31.5 110.25 66.15 110.25 110.25V141.75C83.475 141.75 63 162.225 63 189V299.25C63 326.025 83.475 346.5 110.25 346.5H267.75C294.525 346.5 315 326.025 315 299.25V189C315 162.225 294.525 141.75 267.75 141.75ZM141.75 110.25C141.75 83.475 162.225 63 189 63C215.775 63 236.25 83.475 236.25 110.25V141.75H141.75V110.25ZM206.325 244.125L204.75 245.7V267.75C204.75 277.2 198.45 283.5 189 283.5C179.55 283.5 173.25 277.2 173.25 267.75V245.7C163.8 236.25 162.225 222.075 171.675 212.625C181.125 203.175 195.3 201.6 204.75 211.05C214.2 218.925 215.775 234.675 206.325 244.125Z" fill="black"/>
</svg>
