<svg width="128" height="128" viewBox="0 0 128 128" fill="none" xmlns="http://www.w3.org/2000/svg">
<g clip-path="url(#clip0_5_547)">
<path d="M76.512 0.281029L69.654 5.40803L95.144 39.887L101.998 34.76L76.512 0.281029ZM60.793 14.004L55.324 20.607L88.148 48.102L93.613 41.502L60.793 14.004ZM48.215 31.928L44.607 39.717L83.328 57.854L86.936 50.066L48.215 31.928ZM40.835 51.439L39.08 59.849L80.875 68.686L82.633 60.279L40.835 51.439ZM21.294 62.393V96.637H97.884V62.393H89.376V88.078H29.806V62.393H21.294ZM38.317 70.955V79.515H80.864V70.955H38.317ZM36.644 111.049V127.576H38.31L38.302 123.408L40.323 121.373L44.14 127.576H46.2L41.476 120.216L45.54 116.141H43.462L38.3 121.181L38.308 111.049H36.642H36.644ZM92.934 111.469C90.584 111.469 89.565 113.14 89.565 114.783V127.566H92.45V118.432H94.577V116.23H92.45V114.963C92.45 114.296 92.78 113.916 93.468 113.916H94.578V111.469H92.934ZM95.948 111.469V124.266C95.948 125.913 96.943 127.58 99.318 127.58H100.958V125.135H99.85C99.12 125.135 98.83 124.778 98.83 124.088H98.828V111.468L95.948 111.469ZM10.642 112.649V124.509C10.642 126.205 11.613 127.576 13.558 127.576H14.739V126.136H13.856C12.795 126.136 12.31 125.51 12.31 124.466V117.953H13.92L15.46 116.41H12.308V112.648H10.64L10.642 112.649ZM106.444 115.855C104.738 115.855 103.584 116.523 102.874 117.281C101.834 118.372 101.565 119.683 101.565 121.773C101.565 123.887 101.835 125.198 102.875 126.293C103.585 127.047 104.737 127.713 106.442 127.713C108.149 127.713 109.325 127.047 110.036 126.293C111.076 125.202 111.345 123.885 111.345 121.771C111.345 119.682 111.075 118.373 110.036 117.283C109.326 116.525 108.15 115.857 106.444 115.857V115.855ZM53.237 115.859C51.531 115.859 50.377 116.527 49.669 117.281C48.627 118.372 48.359 119.683 48.359 121.777C48.359 123.891 48.626 125.202 49.669 126.293C50.377 127.047 51.531 127.713 53.237 127.713C54.947 127.713 56.118 127.047 56.829 126.293C57.873 125.202 58.138 123.891 58.138 121.777C58.138 119.684 57.873 118.371 56.829 117.281C56.119 116.527 54.947 115.859 53.237 115.859ZM73.755 115.859C70.761 115.859 68.724 117.994 68.724 121.777C68.724 126.469 71.338 127.713 74.067 127.713C76.149 127.713 77.283 127.07 78.457 125.889L76.707 124.179C75.971 124.914 75.351 125.269 74.087 125.269C72.467 125.269 71.56 124.179 71.56 122.686H78.786V121.398C78.786 118.218 76.969 115.859 73.755 115.859ZM85.945 115.859C85.401 115.852 84.8616 115.96 84.3616 116.174C83.8616 116.388 83.4121 116.705 83.042 117.104L83.04 117.105V115.99H80.226V127.58H83.108V120.596C83.108 119.126 84.085 118.459 84.97 118.459C85.2588 118.449 85.5459 118.506 85.8094 118.625C86.0729 118.743 86.3057 118.921 86.49 119.143L88.673 116.951C87.876 116.149 87.079 115.859 85.945 115.859ZM58.099 115.99L62.356 127.58H64.616L68.849 115.99H65.81L63.483 123.156L61.133 115.99H58.097H58.099ZM111.349 115.99L114.896 127.58H117.271L119.687 120.309L122.105 127.58H124.474L128 115.99H124.963L123.098 123.156L120.725 115.99H118.619L116.269 123.156L114.41 115.99H111.349ZM4.699 116.018C2.269 116.018 0.511 117.27 0.511 119.359C0.511 121.24 1.691 122.235 3.911 122.419L5.788 122.586C7.103 122.701 7.685 123.259 7.685 124.258C7.685 125.605 6.525 126.275 4.649 126.275C3.239 126.275 2.014 125.905 1.11 124.953L0 126.066C1.249 127.275 2.753 127.713 4.672 127.713C7.425 127.713 9.299 126.439 9.299 124.234C9.299 122.098 7.936 121.331 5.945 121.144L4.121 120.984C2.683 120.869 2.129 120.288 2.129 119.313C2.129 118.152 3.006 117.432 4.672 117.432C5.852 117.432 6.896 117.712 7.705 118.336L8.793 117.246C7.773 116.413 6.316 116.018 4.697 116.018H4.699ZM20.192 116.018V116.02C18.363 116.02 17.215 116.377 16.208 117.656C16.192 117.676 17.298 118.756 17.298 118.756C17.969 117.804 18.711 117.456 20.169 117.456C22.249 117.456 23.083 118.29 23.083 119.961V121.055H19.659C17.115 121.055 15.726 122.355 15.726 124.35C15.7002 125.206 16.0074 126.038 16.583 126.672C17.301 127.414 18.226 127.712 19.798 127.712C21.326 127.712 22.16 127.412 23.085 126.484V127.576H24.751V119.822C24.751 117.342 23.246 116.018 20.192 116.018ZM31.276 116.018C28.405 116.018 26.231 117.97 26.231 121.869C26.231 125.767 28.405 127.719 31.276 127.719C32.849 127.719 33.843 127.299 35.024 126.023L33.89 124.93C33.032 125.881 32.362 126.229 31.276 126.229C30.7624 126.25 30.2516 126.142 29.7905 125.915C29.3293 125.688 28.9324 125.349 28.636 124.929C28.103 124.188 27.897 123.306 27.897 121.869C27.897 120.427 28.103 119.546 28.636 118.803C28.9324 118.383 29.3293 118.044 29.7905 117.817C30.2516 117.59 30.7624 117.482 31.276 117.503C32.362 117.503 33.032 117.827 33.886 118.779C33.886 118.779 35.004 117.694 34.997 117.682C33.827 116.43 32.837 116.018 31.277 116.018H31.276ZM73.755 118.262C74.572 118.262 75.32 118.728 75.683 119.462C75.857 119.853 75.948 120.28 75.953 120.707H71.56C71.5633 120.279 71.6542 119.855 71.827 119.463C72.0044 119.103 72.2789 118.8 72.6196 118.587C72.9603 118.375 73.3536 118.262 73.755 118.262ZM106.445 118.459C106.945 118.436 107.434 118.621 107.798 118.973C108.394 119.573 108.462 120.573 108.462 121.773C108.462 122.973 108.393 123.997 107.798 124.602C107.618 124.774 107.406 124.908 107.173 124.996C106.941 125.083 106.692 125.123 106.444 125.112C106.199 125.123 105.954 125.084 105.725 124.996C105.496 124.908 105.287 124.774 105.112 124.602C104.516 123.997 104.448 122.974 104.448 121.773C104.448 120.573 104.517 119.573 105.112 118.973C105.286 118.8 105.495 118.664 105.724 118.576C105.953 118.487 106.199 118.448 106.445 118.459ZM53.237 118.463C53.739 118.44 54.227 118.622 54.591 118.973C55.187 119.573 55.255 120.576 55.255 121.777C55.255 122.977 55.186 124.001 54.591 124.602C54.4118 124.775 54.1993 124.909 53.9665 124.997C53.7337 125.084 53.4855 125.124 53.237 125.112C52.9923 125.124 52.7477 125.086 52.519 124.998C52.2902 124.91 52.0825 124.775 51.909 124.602C51.309 124.001 51.241 122.978 51.241 121.777C51.241 120.577 51.309 119.573 51.909 118.973C52.083 118.801 52.2909 118.667 52.5195 118.579C52.7481 118.491 52.9924 118.452 53.237 118.463ZM19.894 122.311H23.083L23.085 123.539C23.085 124.491 22.899 125.138 22.509 125.509C21.789 126.207 20.931 126.275 19.96 126.275C18.154 126.275 17.345 125.652 17.345 124.328C17.345 123.006 18.179 122.311 19.894 122.311Z" fill="black"/>
</g>
<defs>
<clipPath id="clip0_5_547">
<rect width="128" height="128" fill="white"/>
</clipPath>
</defs>
</svg>
