<svg width="367" height="333" viewBox="0 0 367 333" fill="none" xmlns="http://www.w3.org/2000/svg">
<g clip-path="url(#clip0_6_2)">
<path d="M63.7153 106.375L122.333 121.73L186.762 79.2725L94.2986 81.6775C93.3933 81.7224 92.5158 81.9772 91.75 82.4175L62.4919 97.68C61.5818 98.1376 60.8439 98.8323 60.3737 99.6745C59.9035 100.517 59.7225 101.467 59.8543 102.404C59.9861 103.34 60.4244 104.219 61.1128 104.927C61.8011 105.635 62.7077 106.14 63.7153 106.375Z" fill="black"/>
<path d="M351.912 58.83L287.687 46.25C282.286 45.1861 276.695 45.1888 271.295 46.2582C265.895 47.3275 260.812 49.4384 256.39 52.4475L62.39 180.375L15.8014 178.525C13.1328 178.443 10.5032 179.123 8.2838 180.47C6.06439 181.817 4.36735 183.762 3.43229 186.032C2.49722 188.301 2.37139 190.779 3.07256 193.117C3.77372 195.455 5.26646 197.534 7.33999 199.06L52.7053 231.713C53.4521 232.259 54.3411 232.623 55.2871 232.769C56.2331 232.914 57.2045 232.837 58.1083 232.545C71.0553 228.013 119.275 204.795 176.262 176.398L187.68 282.865C187.777 283.787 188.149 284.668 188.757 285.412C189.365 286.156 190.185 286.735 191.129 287.088C192.074 287.44 193.106 287.551 194.115 287.41C195.124 287.269 196.071 286.881 196.855 286.288L222.341 267.048C223.736 265.986 224.674 264.512 224.991 262.885L249.152 139.953C289.93 119.418 328.873 99.53 356.296 85.47C359.142 84.0649 361.443 81.9 362.887 79.2687C364.332 76.6373 364.85 73.6666 364.372 70.7591C363.893 67.8515 362.441 65.1477 360.213 63.014C357.984 60.8802 355.086 59.4196 351.912 58.83Z" fill="black"/>
</g>
<defs>
<clipPath id="clip0_6_2">
<rect width="367" height="333" fill="white"/>
</clipPath>
</defs>
</svg>
